<svg width="88" height="80" viewBox="0 0 88 80" fill="none" xmlns="http://www.w3.org/2000/svg">
<g clip-path="url(#clip0_1_857)">
<path d="M17.0654 54.8619C18.4049 54.8635 19.689 55.3963 20.6362 56.3434C21.5833 57.2906 22.1161 58.5747 22.1177 59.9142V70.602C22.1161 71.9415 21.5833 73.2256 20.6362 74.1728C19.689 75.1199 18.4049 75.6527 17.0654 75.6543H10.063C8.72337 75.6529 7.43901 75.1202 6.49169 74.1731C5.54436 73.2259 5.01144 71.9416 5.00983 70.602V59.9142C5.01144 58.5746 5.54436 57.2903 6.49169 56.3431C7.43901 55.396 8.72337 54.8633 10.063 54.8619H17.0654ZM17.0654 50.5151H10.063C8.8286 50.515 7.6063 50.758 6.46586 51.2303C5.32542 51.7026 4.28917 52.3949 3.4163 53.2677C2.54343 54.1405 1.85103 55.1767 1.37863 56.3171C0.906228 57.4575 0.663086 58.6798 0.663086 59.9142V70.602C0.662745 71.8367 0.905628 73.0593 1.37786 74.2C1.8501 75.3408 2.54244 76.3773 3.41533 77.2504C4.28822 78.1236 5.32457 78.8162 6.46519 79.2887C7.60581 79.7613 8.82834 80.0045 10.063 80.0045H17.0654C18.3 80.0044 19.5224 79.7611 20.6629 79.2885C21.8035 78.8159 22.8397 78.1233 23.7125 77.2501C24.5853 76.377 25.2776 75.3405 25.7498 74.1998C26.2219 73.0591 26.4648 71.8366 26.4644 70.602V59.9142C26.4644 57.4214 25.4742 55.0307 23.7115 53.268C21.9489 51.5054 19.5582 50.5151 17.0654 50.5151Z" fill="#1D1D1B"/>
<path d="M47.5021 29.6409C48.8417 29.6423 50.126 30.175 51.0733 31.1222C52.0207 32.0693 52.5536 33.3536 52.5552 34.6932V70.6017C52.5536 71.9413 52.0207 73.2256 51.0733 74.1728C50.126 75.1199 48.8417 75.6526 47.5021 75.654H40.5005C39.1609 75.6526 37.8765 75.1199 36.9292 74.1728C35.9819 73.2256 35.4489 71.9413 35.4473 70.6017V34.6932C35.4489 33.3536 35.9819 32.0693 36.9292 31.1222C37.8765 30.175 39.1609 29.6423 40.5005 29.6409H47.5021ZM47.5021 25.2942H40.5005C39.2661 25.2941 38.0438 25.5371 36.9034 26.0094C35.7629 26.4817 34.7267 27.174 33.8538 28.0468C32.9809 28.9196 32.2885 29.9558 31.8161 31.0962C31.3437 32.2366 31.1006 33.4588 31.1006 34.6932V70.6017C31.1002 71.8364 31.3431 73.059 31.8154 74.1997C32.2876 75.3405 32.9799 76.377 33.8528 77.2501C34.7257 78.1233 35.7621 78.8159 36.9027 79.2884C38.0433 79.761 39.2658 80.0042 40.5005 80.0042H47.5021C48.7367 80.0042 49.9592 79.761 51.0998 79.2884C52.2405 78.8159 53.2768 78.1233 54.1497 77.2501C55.0226 76.377 55.7149 75.3405 56.1872 74.1997C56.6594 73.059 56.9023 71.8364 56.9019 70.6017V34.6932C56.9019 33.4588 56.6588 32.2366 56.1864 31.0962C55.714 29.9558 55.0216 28.9196 54.1487 28.0468C53.2759 27.174 52.2396 26.4817 51.0992 26.0094C49.9587 25.5371 48.7364 25.2941 47.5021 25.2942Z" fill="#1D1D1B"/>
<path d="M82.9908 55.1471V70.6021C82.9906 71.2658 82.8598 71.9229 82.6057 72.536C82.3516 73.1491 81.9792 73.7061 81.5098 74.1753C81.0404 74.6444 80.4832 75.0165 79.87 75.2703C79.2567 75.5241 78.5995 75.6546 77.9359 75.6544H70.9352C69.5952 75.6544 68.3101 75.1221 67.3627 74.1746C66.4152 73.2271 65.8829 71.942 65.8829 70.6021V17.3161C65.8829 15.9761 66.4151 14.691 67.3626 13.7433C68.3101 12.7957 69.5951 12.2632 70.9352 12.263H77.9359C79.2761 12.263 80.5613 12.7954 81.509 13.743C82.4566 14.6907 82.989 15.976 82.989 17.3161V41.7853C82.9889 42.0707 83.045 42.3534 83.1542 42.6171C83.2633 42.8809 83.4234 43.1205 83.6252 43.3224C83.8269 43.5242 84.0665 43.6844 84.3302 43.7936C84.5939 43.9029 84.8765 43.9591 85.162 43.9591C85.7385 43.9591 86.2914 43.7301 86.6991 43.3224C87.1067 42.9148 87.3358 42.3618 87.3358 41.7853V17.3161C87.3359 16.0817 87.0928 14.8593 86.6205 13.7188C86.1481 12.5783 85.4557 11.5421 84.5829 10.6692C83.71 9.79629 82.6737 9.1039 81.5332 8.63155C80.3927 8.1592 79.1703 7.91615 77.9359 7.91626H70.9352C69.7008 7.91626 68.4785 8.1594 67.3381 8.6318C66.1977 9.1042 65.1615 9.7966 64.2887 10.6695C63.4159 11.5423 62.7236 12.5786 62.2513 13.719C61.779 14.8595 61.536 16.0818 61.5361 17.3161V70.6021C61.5358 71.8367 61.7786 73.0592 62.2508 74.1999C62.723 75.3406 63.4153 76.3771 64.2881 77.2502C65.1609 78.1233 66.1971 78.816 67.3376 79.2886C68.4782 79.7612 69.7006 80.0045 70.9352 80.0046H77.9359C79.1703 80.0046 80.3926 79.7615 81.5331 79.2891C82.6735 78.8167 83.7097 78.1243 84.5826 77.2514C85.4555 76.3786 86.1479 75.3423 86.6202 74.2019C87.0926 73.0614 87.3358 71.8391 87.3358 70.6047V55.1471C87.3358 54.5706 87.1067 54.0177 86.6991 53.61C86.2914 53.2023 85.7385 52.9733 85.162 52.9733C84.5858 52.9738 84.0334 53.203 83.6263 53.6107C83.2191 54.0183 82.9905 54.571 82.9908 55.1471Z" fill="#1D1D1B"/>
<path d="M26.4652 40.1225C37.5445 40.1225 46.5261 31.1409 46.5261 20.0616C46.5261 8.9823 37.5445 0.000732422 26.4652 0.000732422C15.3859 0.000732422 6.4043 8.9823 6.4043 20.0616C6.4043 31.1409 15.3859 40.1225 26.4652 40.1225Z" fill="#0094DA"/>
<path d="M36.0728 12.3575C36.0659 12.2917 36.065 12.2249 36.052 12.1599C36.0344 12.0842 36.0124 12.0095 35.9861 11.9363C35.9679 11.8765 35.954 11.815 35.9306 11.7569C35.9072 11.6988 35.8674 11.6355 35.8353 11.5757C35.8041 11.5101 35.7693 11.4461 35.7313 11.3842C35.6932 11.327 35.6446 11.2784 35.6021 11.2256C35.5602 11.1681 35.5151 11.1132 35.4669 11.0609C35.412 11.0109 35.3541 10.9643 35.2936 10.9213C35.2424 10.8797 35.1965 10.8347 35.1419 10.7974C35.0772 10.7569 35.01 10.7205 34.9408 10.6882C34.8836 10.6578 34.8299 10.6232 34.7675 10.6015C34.7051 10.5798 34.6375 10.5608 34.5716 10.5408C34.5035 10.5164 34.434 10.4958 34.3636 10.4793C34.2872 10.4676 34.2102 10.4598 34.133 10.4559C34.0715 10.4507 34.0117 10.4377 33.9484 10.4377H23.0274C22.7427 10.432 22.4597 10.4831 22.195 10.5881C21.9302 10.6931 21.6891 10.8498 21.4858 11.0491C21.2824 11.2485 21.1208 11.4864 21.0105 11.7489C20.9002 12.0114 20.8434 12.2934 20.8434 12.5781C20.8434 12.8629 20.9002 13.1448 21.0105 13.4073C21.1208 13.6699 21.2824 13.9078 21.4858 14.1071C21.6891 14.3064 21.9302 14.4632 22.195 14.5682C22.4597 14.6732 22.7427 14.7243 23.0274 14.7186H28.7826L17.4628 26.0366C17.0614 26.4382 16.8359 26.9828 16.8359 27.5506C16.836 28.1185 17.0617 28.6631 17.4633 29.0645C17.8649 29.466 18.4095 29.6915 18.9774 29.6914C19.5452 29.6914 20.0898 29.4657 20.4913 29.0641L31.8127 17.7435V24.1574C31.8127 24.7252 32.0383 25.2698 32.4398 25.6713C32.8413 26.0728 33.3858 26.2983 33.9536 26.2983C34.5214 26.2983 35.0659 26.0728 35.4674 25.6713C35.8689 25.2698 36.0945 24.7252 36.0945 24.1574V12.5716C36.0945 12.5005 36.0797 12.4303 36.0728 12.3575Z" fill="white"/>
</g>
<defs>
<clipPath id="clip0_1_857">
<rect width="86.6748" height="80" fill="white" transform="translate(0.662109)"/>
</clipPath>
</defs>
</svg>
