<svg width="84" height="80" viewBox="0 0 84 80" fill="none" xmlns="http://www.w3.org/2000/svg">
<g clip-path="url(#clip0_1_852)">
<path d="M18.7054 80.0006C17.7748 79.9966 16.8696 79.6969 16.1206 79.1446C15.3607 78.6058 14.7947 77.8364 14.5065 76.9506C14.2183 76.0648 14.2233 75.1097 14.5206 74.227L22.3678 50.075L1.82542 35.1486C1.07473 34.6019 0.516257 33.8317 0.229954 32.9483C-0.0563502 32.0649 -0.0558039 31.1135 0.231514 30.2304C0.518833 29.3474 1.07819 28.5778 1.8295 28.032C2.58082 27.4862 3.48557 27.1921 4.41422 27.1918H29.8054L37.6534 3.03978C37.9414 2.15742 38.5011 1.38875 39.2524 0.843698C40.0037 0.298644 40.9081 0.00512695 41.8362 0.00512695C42.7644 0.00512695 43.6688 0.298644 44.4201 0.843698C45.1713 1.38875 45.731 2.15742 46.019 3.03978L53.867 27.1918H79.2614C80.1898 27.1927 81.0941 27.4873 81.8449 28.0334C82.5957 28.5795 83.1545 29.349 83.4414 30.232C83.7283 31.1149 83.7286 32.066 83.4422 32.9491C83.1559 33.8322 82.5975 34.6021 81.847 35.1486L61.3022 50.075L64.1534 58.8518C64.3444 59.4393 64.2941 60.0786 64.0137 60.629C63.7333 61.1795 63.2457 61.596 62.6582 61.787C62.3673 61.8815 62.0606 61.9178 61.7557 61.8939C61.4507 61.8699 61.1535 61.7861 60.881 61.6473C60.3305 61.3669 59.914 60.8793 59.723 60.2918L56.8142 51.335C56.5256 50.4515 56.5251 49.4992 56.8126 48.6154C57.1002 47.7316 57.661 46.9619 58.4142 46.4174L78.4614 31.8534H53.6774C52.7481 31.8548 51.8423 31.5612 51.0905 31.0149C50.3388 30.4686 49.7798 29.6977 49.4942 28.8134L41.8358 5.24057L34.1742 28.8134C33.8888 29.6978 33.3299 30.4688 32.5781 31.0152C31.8263 31.5616 30.9204 31.8551 29.991 31.8534H5.21422L25.2614 46.4174C26.0145 46.962 26.5753 47.7316 26.8628 48.6154C27.1504 49.4992 27.1499 50.4515 26.8614 51.335L19.2006 74.9054L39.251 60.3382C40.0017 59.7904 40.9069 59.4952 41.8362 59.4952C42.7655 59.4952 43.6708 59.7904 44.4214 60.3382L63.9718 74.6094C64.227 74.7864 64.4443 75.0127 64.6107 75.2749C64.7772 75.5372 64.8895 75.8301 64.941 76.1364C64.9926 76.4427 64.9823 76.7562 64.9109 77.0585C64.8395 77.3607 64.7083 77.6457 64.5251 77.8965C64.3419 78.1473 64.1103 78.359 63.8441 78.519C63.5779 78.679 63.2823 78.7841 62.9749 78.8281C62.6674 78.8722 62.3542 78.8543 62.0538 78.7755C61.7533 78.6967 61.4717 78.5586 61.2254 78.3694L41.8358 64.2182L21.2942 79.1446C20.5442 79.6977 19.6374 79.9975 18.7054 80.0006Z" fill="#1D1D1B"/>
<path d="M58.2597 38.4439C58.15 38.093 57.9301 37.7867 57.6327 37.5706C57.3353 37.3544 56.9761 37.2399 56.6085 37.2439H46.5837L43.4861 27.7103C43.3729 27.3615 43.1521 27.0575 42.8555 26.842C42.5589 26.6264 42.2016 26.5103 41.8349 26.5103C41.4682 26.5103 41.1109 26.6264 40.8143 26.842C40.5176 27.0575 40.2969 27.3615 40.1837 27.7103L37.0861 37.2439H27.0621C26.6953 37.2437 26.338 37.3597 26.0412 37.5752C25.7445 37.7906 25.5236 38.0945 25.4102 38.4433C25.2968 38.7921 25.2969 39.1678 25.4102 39.5166C25.5236 39.8653 25.7445 40.1693 26.0413 40.3847L34.1517 46.2767L31.0533 55.8103C30.9359 56.1588 30.9339 56.5358 31.0476 56.8856C31.1613 57.2353 31.3846 57.5391 31.6845 57.7519C31.9795 57.9711 32.3373 58.0894 32.7049 58.0894C33.0724 58.0894 33.4302 57.9711 33.7253 57.7519L41.8349 51.8599L49.9445 57.7519C50.2395 57.9711 50.5973 58.0894 50.9649 58.0894C51.3324 58.0894 51.6902 57.9711 51.9853 57.7519C52.2851 57.539 52.5083 57.2352 52.6219 56.8855C52.7354 56.5357 52.7333 56.1587 52.6157 55.8103L49.5189 46.2767L57.6293 40.3847C57.929 40.172 58.1522 39.8683 58.2658 39.5187C58.3794 39.1691 58.3772 38.7922 58.2597 38.4439Z" fill="#0094DA"/>
</g>
<defs>
<clipPath id="clip0_1_852">
<rect width="83.6664" height="80" fill="white"/>
</clipPath>
</defs>
</svg>
