<svg width="30" height="30" viewBox="0 0 30 30" fill="none" xmlns="http://www.w3.org/2000/svg">
<g clip-path="url(#clip0_1_1153)">
<path d="M10.0009 19.0137H5.00717C4.70754 19.0137 4.50781 19.2134 4.50781 19.513V24.5068C4.50781 24.8064 4.70754 25.0061 5.00717 25.0061H10.0009C10.3005 25.0061 10.5003 24.8064 10.5003 24.5068V19.513C10.5003 19.2134 10.3005 19.0137 10.0009 19.0137ZM5.50653 20.0124H7.00465V24.0074H5.50653V20.0124ZM9.50155 24.0074H8.00342V20.0124H9.50155V24.0074Z" fill="#0095DB"/>
<path d="M24.9814 19.0137H19.9876C19.688 19.0137 19.4883 19.2134 19.4883 19.513V24.5068C19.4883 24.8064 19.688 25.0061 19.9876 25.0061H24.9814C25.2311 25.0061 25.4807 24.8064 25.4807 24.5068V19.513C25.4807 19.2134 25.281 19.0137 24.9814 19.0137ZM20.487 20.0124H21.9851V24.0074H20.487V20.0124ZM24.482 24.0074H22.9839V20.0124H24.482V24.0074Z" fill="#0095DB"/>
<path d="M14.4948 25.5059H13.9954C13.6958 25.5059 13.4961 25.7056 13.4961 26.0052C13.4961 26.3048 13.6958 26.5046 13.9954 26.5046H14.4948C14.7944 26.5046 14.9942 26.3048 14.9942 26.0052C14.9942 25.7056 14.7944 25.5059 14.4948 25.5059Z" fill="#0095DB"/>
<path d="M29.4755 29.0012H27.478V16.0175H27.8775C28.327 16.0175 28.7265 15.7179 28.9262 15.2684C29.076 14.8689 28.9761 14.3696 28.6266 14.0699L28.0073 13.5206H29.4755C29.6753 13.5206 29.8251 13.4207 29.925 13.221C30.0249 13.0213 30.0249 12.8215 29.8751 12.6717L26.7562 9.02623H28.4768C28.6766 9.02623 28.8264 8.92634 28.8764 8.77652C28.9762 8.57679 28.9263 8.377 28.8264 8.22719L26.6306 5.53056H27.4781C27.6779 5.53056 27.8277 5.43067 27.9276 5.23094C28.0275 5.03121 27.9775 4.83142 27.8776 4.6816L24.3819 0.187281C24.1821 -0.0624269 23.7826 -0.0624269 23.5829 0.187281L20.0872 4.68166C19.9873 4.83148 19.9374 5.08118 20.0373 5.231C20.1372 5.43073 20.287 5.53062 20.4867 5.53062H21.2774L20.3091 6.69266L17.1409 3.88268C15.9424 2.7341 14.0448 2.7341 12.8463 3.88268L9.63022 6.73521L8.65152 5.53068H9.50048C9.70021 5.53068 9.85002 5.43078 9.94991 5.28097C10.0498 5.08124 9.99983 4.88145 9.9 4.73164L6.40438 0.237257C6.20465 -0.0124503 5.80513 -0.0124503 5.6054 0.237257L2.10979 4.73164C2.0099 4.88145 1.95998 5.08118 2.05987 5.231C2.15977 5.43073 2.30958 5.53062 2.50931 5.53062H3.30689L1.11108 8.22725C1.01118 8.37706 0.961267 8.52687 1.06116 8.72661C1.16106 8.92634 1.31087 9.02623 1.5106 9.02623H3.23122L0.112191 12.6717C0.0122965 12.8215 -0.0376215 13.0212 0.0622731 13.221C0.162168 13.4208 0.311981 13.5206 0.511711 13.5206H1.97999L1.36067 14.0699C1.01113 14.4195 0.911232 14.8689 1.06104 15.3184C1.21086 15.7179 1.6603 16.0175 2.10973 16.0175H2.50925V27.3034C2.50925 28.0635 2.50925 28.6093 2.52043 29.0012H0.511711C0.212086 29.0012 0.0123551 29.201 0.0123551 29.5006C0.0123551 29.8002 0.212086 30 0.511711 30H3.00855H11.9973H17.9898H26.9786H29.4755C29.7751 30 29.9748 29.8002 29.9748 29.5006C29.9748 29.201 29.7751 29.0012 29.4755 29.0012ZM28.3769 12.5218H26.8812L22.9401 9.02623H25.3807L28.3769 12.5218ZM23.9823 1.33586L26.4792 4.53185H25.5804H22.3344H21.4854L23.9823 1.33586ZM21.086 7.37829L22.5841 5.53062H25.3806L27.4281 8.02752H25.6303H22.3844H21.814L21.1695 7.45583L21.086 7.37829ZM6.00481 1.33586L8.50171 4.53185H7.60283H4.35687H3.50797L6.00481 1.33586ZM4.60657 5.53062H7.4031L8.90123 7.37829L8.81772 7.45583L8.17323 8.02746H7.60289H4.35687H2.55911L4.60657 5.53062ZM1.61032 12.5218L4.60657 9.02623H7.04717L3.10605 12.5218H1.61032ZM2.00984 14.9688C2.00984 14.9189 2.00984 14.8689 2.05976 14.819L4.64964 12.5219H5.00603C5.30566 12.5219 5.50539 12.3222 5.50539 12.0225C5.50539 11.9405 5.48994 11.8664 5.46203 11.8013L8.59071 9.02629H9.001C9.30063 9.02629 9.50036 8.82656 9.50036 8.52693C9.50036 8.43037 9.47935 8.34441 9.44119 8.27196L13.5453 4.6318C13.9448 4.23228 14.4941 4.03255 14.9935 4.03255C15.4929 4.03255 16.0422 4.23228 16.4417 4.68172L20.5293 8.30725C20.5019 8.37185 20.4867 8.44553 20.4867 8.52693C20.4867 8.82656 20.6864 9.02629 20.986 9.02629H21.34L24.5108 11.8387C24.4921 11.8944 24.4817 11.9558 24.4817 12.0225C24.4817 12.3222 24.6814 12.5219 24.981 12.5219H25.2811L27.9273 14.869C27.9772 14.869 28.0272 14.9189 27.9772 14.9689C27.9273 15.0189 27.8773 15.0188 27.8773 15.0188H26.9785H3.00855H2.10967C2.05976 15.0187 2.00984 15.0187 2.00984 14.9688ZM12.4967 29.0012V21.5106H17.4905V29.0012H12.4967ZM18.4892 29.0012V21.0112C18.4892 20.7116 18.2895 20.5119 17.9899 20.5119H11.9974C11.6977 20.5119 11.498 20.7116 11.498 21.0112V29.0012H3.50797C3.50797 26.8539 3.50797 18.2147 3.50797 16.0175H26.4792V29.0012H18.4892Z" fill="black"/>
<path d="M11.1478 9.02606H12.2464C12.546 9.02606 12.7458 8.82633 12.7458 8.5267C12.7458 8.22707 12.546 8.02734 12.2464 8.02734H11.1478C10.8482 8.02734 10.6484 8.22707 10.6484 8.5267C10.6484 8.82633 10.8482 9.02606 11.1478 9.02606Z" fill="#0095DB"/>
<path d="M14.4447 9.02606H15.5433C15.793 9.02606 16.0426 8.82633 16.0426 8.5267C16.0426 8.22707 15.8429 8.02734 15.5433 8.02734H14.4447C14.145 8.02734 13.9453 8.22707 13.9453 8.5267C13.9453 8.82633 14.145 9.02606 14.4447 9.02606Z" fill="#0095DB"/>
<path d="M17.6908 9.02606H18.7894C19.089 9.02606 19.2887 8.82633 19.2887 8.5267C19.2887 8.22707 19.089 8.02734 18.7894 8.02734H17.6908C17.3911 8.02734 17.1914 8.22707 17.1914 8.5267C17.1914 8.82633 17.3911 9.02606 17.6908 9.02606Z" fill="#0095DB"/>
<path d="M18.4883 12.0223C18.4883 12.3219 18.688 12.5217 18.9876 12.5217H19.9864C20.286 12.5217 20.4858 12.3219 20.4858 12.0223C20.4858 11.7227 20.286 11.5229 19.9864 11.5229H18.9876C18.688 11.5229 18.4883 11.7227 18.4883 12.0223Z" fill="#0095DB"/>
<path d="M7.00326 12.5217H8.00203C8.30166 12.5217 8.50139 12.3219 8.50139 12.0223C8.50139 11.7227 8.30166 11.5229 8.00203 11.5229H7.00326C6.70364 11.5229 6.50391 11.7227 6.50391 12.0223C6.50391 12.3219 6.70364 12.5217 7.00326 12.5217Z" fill="#0095DB"/>
<path d="M9.99936 12.5217H10.9981C11.2978 12.5217 11.4975 12.3219 11.4975 12.0223C11.4975 11.7227 11.2978 11.5229 10.9981 11.5229H9.99936C9.69973 11.5229 9.5 11.7227 9.5 12.0223C9.5 12.3219 9.69973 12.5217 9.99936 12.5217Z" fill="#0095DB"/>
<path d="M21.9837 12.5217H22.9825C23.2821 12.5217 23.4819 12.3219 23.4819 12.0223C23.4819 11.7227 23.2821 11.5229 22.9825 11.5229H21.9837C21.6841 11.5229 21.4844 11.7227 21.4844 12.0223C21.4844 12.3219 21.6841 12.5217 21.9837 12.5217Z" fill="#0095DB"/>
<path d="M15.4922 12.0223C15.4922 12.3219 15.6919 12.5217 15.9915 12.5217H16.9903C17.2899 12.5217 17.4897 12.3219 17.4897 12.0223C17.4897 11.7227 17.2899 11.5229 16.9903 11.5229H15.9915C15.6919 11.5229 15.4922 11.7227 15.4922 12.0223Z" fill="#0095DB"/>
<path d="M12.4961 12.0223C12.4961 12.3219 12.6958 12.5217 12.9955 12.5217H13.9942C14.2938 12.5217 14.4936 12.3219 14.4936 12.0223C14.4936 11.7227 14.2938 11.5229 13.9942 11.5229H12.9955C12.6958 11.5229 12.4961 11.7227 12.4961 12.0223Z" fill="#0095DB"/>
</g>
<defs>
<clipPath id="clip0_1_1153">
<rect width="30" height="30" fill="white"/>
</clipPath>
</defs>
</svg>
