<svg width="33" height="33" viewBox="0 0 33 33" fill="none" xmlns="http://www.w3.org/2000/svg">
<path d="M29.3316 18.6237H3.67285C2.80273 18.6237 2.09375 19.3327 2.09375 20.2028V24.0056C2.09375 24.7983 2.6835 25.459 3.44727 25.5686V29.223C3.44727 30.1866 4.23037 30.9665 5.19072 30.9665H27.8105C28.7741 30.9665 29.554 30.1834 29.554 29.223V25.5653C30.3178 25.4558 30.9075 24.7983 30.9075 24.0023V20.1996C30.9107 19.3327 30.2018 18.6237 29.3316 18.6237ZM28.2682 29.223C28.2682 29.4744 28.0651 29.6774 27.8138 29.6774H5.19395C4.94258 29.6774 4.73955 29.4744 4.73955 29.223V25.6169H28.2682V29.223ZM29.6217 24.0056C29.6217 24.1635 29.4928 24.2956 29.3316 24.2956H3.67285C3.51494 24.2956 3.38281 24.1667 3.38281 24.0056V20.2028C3.38281 20.0449 3.51172 19.9128 3.67285 19.9128H29.3316C29.4896 19.9128 29.6217 20.0417 29.6217 20.2028V24.0056ZM9.89902 16.5419H23.1603C23.5212 16.5419 23.8145 16.2357 23.8145 15.8619L21.6327 9.48106C21.6327 9.10723 21.3395 8.80107 20.9785 8.80107H16.9083C18.6066 8.59805 19.9247 7.1543 19.9247 5.40439C19.9247 3.5127 18.3939 1.98193 16.5022 1.98193C14.6105 1.98193 13.0798 3.5127 13.0798 5.40439C13.0798 7.15752 14.3979 8.60127 16.0962 8.80107H12.0808C11.7198 8.80107 11.4266 9.10723 11.4266 9.48106L9.24482 15.8619C9.24482 16.2357 9.53809 16.5419 9.89902 16.5419ZM15.4678 10.132C15.4678 9.9 15.6966 9.71309 15.9737 9.71309H16.9566C17.2338 9.71309 17.4626 9.90322 17.4626 10.132L17.0404 11.1343L17.4626 14.3473C17.4626 14.5793 16.8148 15.8136 16.5345 15.8136H16.3927C16.1155 15.8136 15.4646 14.5761 15.4646 14.3473L15.8899 11.1182L15.4678 10.132Z" fill="#1E1E1E"/>
<path d="M21.6031 21.418H12.0254C11.8481 21.418 11.7031 21.563 11.7031 21.7402V22.3848C11.7031 22.562 11.8481 22.707 12.0254 22.707H21.6031C21.7804 22.707 21.9254 22.562 21.9254 22.3848V21.7402C21.9254 21.563 21.7804 21.418 21.6031 21.418Z" fill="#0095DB"/>
</svg>
