<svg width="22" height="30" viewBox="0 0 22 30" fill="none" xmlns="http://www.w3.org/2000/svg">
<path d="M11.1017 6.80274C11.0252 6.73425 10.9092 6.73483 10.8334 6.80409L9.39285 8.11996C9.26449 8.23721 9.05797 8.14615 9.05797 7.97229V7.1575C9.05797 7.04704 8.96842 6.9575 8.85797 6.9575H7.61617C7.50571 6.9575 7.41617 7.04704 7.41617 7.1575V9.84686C7.41617 9.90315 7.39245 9.95684 7.35083 9.99474L4.74633 12.3665C4.66396 12.4415 4.65876 12.5694 4.73478 12.6508L5.4609 13.4289C5.53583 13.5092 5.66148 13.514 5.74238 13.4398L6.23365 12.9887C6.36189 12.871 6.56891 12.962 6.56891 13.1361V18.5501C6.56891 18.6605 6.65845 18.7501 6.76891 18.7501H9.20836C9.31882 18.7501 9.40836 18.6605 9.40836 18.5501V15.2001C9.40836 15.0896 9.4979 15.0001 9.60836 15.0001H12.3724C12.4829 15.0001 12.5724 15.0896 12.5724 15.2001V18.5501C12.5724 18.6605 12.662 18.7501 12.7724 18.7501H15.2142C15.3247 18.7501 15.4142 18.6605 15.4142 18.5501V13.0762C15.4142 12.9029 15.6197 12.8116 15.7483 12.9279L16.2524 13.3835C16.3349 13.4581 16.4623 13.4511 16.5361 13.3679L17.2449 12.5697C17.318 12.4874 17.3108 12.3614 17.2287 12.2879L11.1017 6.80274ZM15.9208 0.396894C15.7894 0.264142 15.6103 0.189453 15.4234 0.189453H2.33594C1.23137 0.189453 0.335938 1.08488 0.335938 2.18945V27.7207C0.335938 28.8253 1.23137 29.7207 2.33594 29.7207H19.6447C20.7493 29.7207 21.6447 28.8253 21.6447 27.7207V6.46475C21.6447 6.28028 21.5719 6.10327 21.4421 5.97219L15.9208 0.396894ZM2.18891 2.74231C2.18891 2.35571 2.50231 2.0423 2.88891 2.0423H14.9626L15.0437 2.1002V4.90629C15.0437 6.01086 15.9391 6.90629 17.0437 6.90629H19.7687C19.7815 6.90629 19.7919 6.91668 19.7919 6.92949V27.1677C19.7919 27.5543 19.4785 27.8677 19.0919 27.8677H2.88891C2.50231 27.8677 2.18891 27.5543 2.18891 27.1677V2.74231ZM17.3771 22.0313C17.3771 22.4197 17.0623 22.7345 16.674 22.7345H5.3068C4.91847 22.7345 4.60367 22.4197 4.60367 22.0313C4.60367 21.643 4.91847 21.3282 5.3068 21.3282H16.674C17.0623 21.3282 17.3771 21.643 17.3771 22.0313ZM17.3771 24.6095C17.3771 24.9978 17.0623 25.3126 16.674 25.3126H5.3068C4.91847 25.3126 4.60367 24.9978 4.60367 24.6095C4.60367 24.2211 4.91847 23.9063 5.3068 23.9063H16.674C17.0623 23.9063 17.3771 24.2211 17.3771 24.6095Z" fill="#0095DB"/>
<path d="M15.9208 0.396894C15.7894 0.264142 15.6103 0.189453 15.4234 0.189453H2.33594C1.23137 0.189453 0.335938 1.08488 0.335938 2.18945V27.7207C0.335938 28.8253 1.23137 29.7207 2.33594 29.7207H19.6447C20.7493 29.7207 21.6447 28.8253 21.6447 27.7207V6.46475C21.6447 6.28028 21.5719 6.10327 21.4421 5.97219L15.9208 0.396894ZM2.18891 2.74231C2.18891 2.35571 2.50231 2.0423 2.88891 2.0423H14.9626L15.0437 2.1002V4.90629C15.0437 6.01086 15.9391 6.90629 17.0437 6.90629H19.7687C19.7815 6.90629 19.7919 6.91668 19.7919 6.92949V27.1677C19.7919 27.5543 19.4785 27.8677 19.0919 27.8677H2.88891C2.50231 27.8677 2.18891 27.5543 2.18891 27.1677V2.74231Z" fill="#1E1E1E"/>
</svg>
