<svg width="32" height="32" viewBox="0 0 32 32" fill="none" xmlns="http://www.w3.org/2000/svg">
<path d="M24.0768 23.8401C23.4609 23.8401 22.957 24.344 22.957 24.9598C22.957 25.5757 23.4609 26.0796 24.0768 26.0796C24.6926 26.0796 25.1965 25.5757 25.1965 24.9598C25.1965 24.344 24.6927 23.8401 24.0768 23.8401Z" fill="#0095DB"/>
<path d="M7.27991 20.4807C6.66406 20.4807 6.16016 20.9846 6.16016 21.6005C6.16016 22.2163 6.66406 22.7202 7.27991 22.7202C7.89576 22.7202 8.39967 22.2163 8.39967 21.6005C8.39967 20.9846 7.89576 20.4807 7.27991 20.4807Z" fill="#0095DB"/>
<path d="M31.8014 17.2332C31.5215 16.7853 31.1296 16.5613 30.6257 16.5613H26.3146V12.6421C26.3146 12.3253 26.1152 12.1082 25.8107 12.0846V10.4026C25.8107 10.1787 25.6427 10.0107 25.4747 9.89871L23.2352 8.77895C23.0672 8.66694 22.8433 8.66694 22.6753 8.77895C22.5073 8.89096 22.3953 9.11491 22.3953 9.28286V12.0823C22.0594 12.0823 21.8354 12.3062 21.8354 12.6422V16.5614H16.8262L14.8369 7.65919C14.6129 6.65138 13.7171 5.92358 12.6533 5.92358H5.03894C3.80717 5.92358 2.79942 6.9314 2.79942 8.1631V15.8558C1.09375 17.1858 0 19.261 0 21.6003C0 23.6158 0.811768 25.4354 2.12744 26.7511C2.12751 26.7512 2.12751 26.7512 2.12757 26.7513C2.12763 26.7513 2.1277 26.7514 2.12776 26.7514C3.4435 28.0671 5.26302 28.8788 7.27852 28.8788C9.29408 28.8788 11.1137 28.067 12.4294 26.7513C12.4294 26.7513 12.4294 26.7513 12.4295 26.7513C12.4295 26.7513 12.4295 26.7512 12.4295 26.7512C12.9533 26.2274 13.3968 25.6236 13.7415 24.9596H20.1559C20.1559 27.1432 21.8916 28.8788 24.0751 28.8788C26.2586 28.8788 27.9942 27.1432 27.9942 24.9596H28.6101C29.114 24.9596 29.6179 24.6797 29.8419 24.2318L31.8574 18.521C32.0814 18.129 32.0254 17.6251 31.8014 17.2332ZM23.5152 10.1787L24.6349 10.7386V12.0823H23.5152V10.1787ZM22.9552 13.202H25.1948V16.5614H22.9552V13.202ZM12.8773 24.1757L12.6721 24.5861C12.4827 24.9291 12.2616 25.2519 12.0126 25.5505L10.4698 24.0078C10.2459 23.7838 9.90993 23.7838 9.68598 24.0078C9.46203 24.2317 9.46203 24.5677 9.68598 24.7916L11.2287 26.3344C10.2951 27.1131 9.12531 27.619 7.83836 27.7337V25.5194C7.83836 25.1835 7.61441 24.9595 7.27845 24.9595C6.94249 24.9595 6.71854 25.1835 6.71854 25.5194V27.7337C5.43154 27.619 4.2618 27.1131 3.32819 26.3344L4.87099 24.7916C5.09494 24.5677 5.09494 24.2317 4.87099 24.0078C4.64704 23.7838 4.31108 23.7838 4.08713 24.0078L2.54439 25.5505C1.76567 24.6169 1.25973 23.4471 1.14506 22.1602H3.35933C3.69529 22.1602 3.91924 21.9362 3.91924 21.6002C3.91924 21.2643 3.69529 21.0403 3.35933 21.0403H1.14506C1.25973 19.7533 1.76567 18.5836 2.54439 17.65L4.14313 19.2487C4.25514 19.3607 4.36708 19.4167 4.53503 19.4167C4.64704 19.4167 4.81499 19.3607 4.92693 19.2487C5.15088 19.0248 5.15088 18.6888 4.92693 18.4649L3.33022 16.8682L3.69523 16.6173C4.5592 15.9807 5.53397 15.6026 6.55947 15.4831C6.56049 15.483 6.5615 15.4828 6.56252 15.4828C6.61434 15.4768 6.66647 15.4724 6.71861 15.4677V17.6811C6.71861 18.0171 6.94256 18.241 7.27852 18.241C7.61447 18.241 7.83843 18.0171 7.83843 17.6811V15.4674C9.07545 15.5797 10.2581 16.0629 11.2198 16.8752L9.6301 18.4649C9.40615 18.6889 9.40615 19.0248 9.6301 19.2488C9.74211 19.3608 9.85405 19.4167 10.022 19.4167C10.1899 19.4167 10.358 19.3607 10.4139 19.2488L11.9989 17.6638C12.8043 18.6194 13.2973 19.7981 13.4115 21.0405H11.1978C10.8618 21.0405 10.6379 21.2644 10.6379 21.6004C10.6379 21.9363 10.8618 22.1603 11.1978 22.1603H13.412C13.3567 22.7808 13.2105 23.374 12.9865 23.9267C12.952 24.0097 12.9161 24.0927 12.8773 24.1757ZM3.91918 8.16304C3.91918 7.54718 4.42309 7.04328 5.03894 7.04328H12.5973C13.1573 7.04328 13.6052 7.43518 13.7171 7.93908L15.6767 16.5613H12.5413C12.5226 16.5425 12.5034 16.5243 12.4845 16.5057C11.1647 15.1571 9.32249 14.3218 7.27845 14.3218C7.20907 14.3218 7.14006 14.323 7.07118 14.3249C7.05241 14.3254 7.03363 14.3264 7.01486 14.3271C6.96323 14.3289 6.91173 14.3311 6.86042 14.334C6.84114 14.335 6.82186 14.3364 6.80252 14.3376C6.74949 14.341 6.6966 14.3449 6.64389 14.3494C6.62829 14.3508 6.61262 14.3521 6.59702 14.3536C6.5348 14.3593 6.47277 14.3658 6.411 14.3731C6.40548 14.3737 6.39996 14.3743 6.39451 14.375C5.51012 14.4812 4.67552 14.745 3.91918 15.1375V8.16304ZM24.075 27.759C22.5073 27.759 21.2756 26.5272 21.2756 24.9596C21.2756 24.8659 21.2803 24.7736 21.2888 24.6825L21.3315 24.5117C21.5483 23.211 22.6568 22.2252 23.9462 22.1633C23.9889 22.1615 24.0317 22.1602 24.0749 22.1602C24.1181 22.1602 24.1609 22.1615 24.2036 22.1633C25.262 22.2141 26.1991 22.8877 26.651 23.8466C26.7948 24.1863 26.8743 24.5621 26.8743 24.9596C26.8744 26.5272 25.6427 27.759 24.075 27.759ZM30.8496 18.073L28.834 23.7279C28.778 23.7839 28.722 23.8399 28.6101 23.8399H27.8344C27.3588 22.2117 25.8684 21.0405 24.075 21.0405C22.2611 21.0405 20.7574 22.2386 20.2999 23.8959H14.2211C14.4322 23.2096 14.5425 22.5228 14.5546 21.7895C14.5546 21.7883 14.5547 21.7871 14.5547 21.7859C14.5554 21.7427 14.557 21.6999 14.557 21.6564C14.557 21.6491 14.5567 21.6419 14.5566 21.6347C14.5567 21.6232 14.557 21.6119 14.557 21.6004C14.557 20.1791 14.153 18.8556 13.4536 17.7372H30.6257C30.7377 17.7372 30.8497 17.7932 30.8497 17.8492C30.8496 17.8491 30.9056 17.961 30.8496 18.073Z" fill="black"/>
<path d="M23.7969 5.86749C23.8046 5.87136 23.8115 5.87434 23.8188 5.8777C24.0311 6.06817 24.0769 6.2091 24.0769 6.25939C24.0769 6.31539 24.0208 6.42734 23.7969 6.53935C23.5169 6.70729 23.405 7.04325 23.5729 7.32321C23.685 7.49116 23.9089 7.60316 24.0769 7.60316C24.1889 7.60316 24.2448 7.60316 24.3568 7.54716C25.0287 7.09926 25.1966 6.65135 25.1966 6.31539C25.1966 5.99612 25.0944 5.47458 24.5075 4.99103C24.4672 4.94099 24.4176 4.89621 24.3567 4.85968C24.1328 4.74767 24.0768 4.63573 24.0768 4.57972C24.0768 4.52372 24.1328 4.35577 24.4127 4.13182C24.6927 3.96387 24.6927 3.57191 24.5248 3.34796C24.3568 3.068 23.9648 3.068 23.7409 3.23595C23.069 3.79586 22.957 4.35571 22.957 4.69167C22.9571 5.02769 23.125 5.47559 23.7969 5.86749Z" fill="#0095DB"/>
<path d="M6.71748 13.2018H11.5885C11.9244 13.2018 12.2603 13.0339 12.4283 12.7539C12.6522 12.418 12.7082 12.0821 12.5962 11.7461L11.8124 8.9467C11.7003 8.4988 11.2524 8.16284 10.7486 8.16284H6.71741C6.10156 8.16284 5.59766 8.66675 5.59766 9.2826V12.082C5.59772 12.6979 6.10163 13.2018 6.71748 13.2018ZM6.71748 9.28266H10.7487L11.5885 12.0821H6.71748V9.28266Z" fill="#0095DB"/>
<path d="M16.2357 19.9208H18.4752C18.8112 19.9208 19.0351 19.6969 19.0351 19.3609C19.0351 19.025 18.8112 18.801 18.4752 18.801H16.2357C15.8997 18.801 15.6758 19.025 15.6758 19.3609C15.6758 19.6969 15.8997 19.9208 16.2357 19.9208Z" fill="#0095DB"/>
<path d="M19.595 21.0403H16.2357C15.8997 21.0403 15.6758 21.2642 15.6758 21.6002C15.6758 21.9362 15.8997 22.1601 16.2357 22.1601H19.595C19.931 22.1601 20.1549 21.9362 20.1549 21.6002C20.1549 21.2642 19.9309 21.0403 19.595 21.0403Z" fill="black"/>
</svg>
