<svg width="59" height="57" viewBox="0 0 59 57" fill="none" xmlns="http://www.w3.org/2000/svg">
<g clip-path="url(#clip0_1_676)">
<path d="M56.9225 16.5705L54.59 17.0521C50.0762 6.79041 39.8094 0 28.5 0C12.7845 0 0 12.7851 0 28.5C0 44.2149 12.7845 57 28.5 57C37.1492 57 45.2318 53.1377 50.673 46.4043C50.8131 46.2367 50.9185 46.0429 50.9829 45.8343C51.0474 45.6256 51.0697 45.4061 51.0485 45.1887C51.0273 44.9714 50.963 44.7604 50.8594 44.5681C50.7558 44.3758 50.6149 44.2061 50.4451 44.0688C50.2752 43.9315 50.0797 43.8294 49.87 43.7684C49.6602 43.7074 49.4404 43.6888 49.2234 43.7137C49.0064 43.7385 48.7966 43.8063 48.606 43.9131C48.4155 44.0199 48.2481 44.1636 48.1137 44.3357C43.3006 50.2905 36.1505 53.7105 28.5 53.7105C14.5994 53.7105 3.29004 42.4006 3.29004 28.5C3.29004 14.5994 14.5994 3.29061 28.5 3.29061C38.2681 3.29061 47.1612 9.01455 51.2915 17.7327L49.191 18.1665C48.931 18.2196 48.6895 18.3404 48.491 18.5166C48.2925 18.6927 48.144 18.9181 48.0603 19.17C47.9767 19.4219 47.9609 19.6914 48.0146 19.9513C48.0683 20.2112 48.1896 20.4524 48.3662 20.6505L53.6159 26.546C53.7921 26.7441 54.0173 26.8924 54.2689 26.9758C54.5205 27.0593 54.7896 27.075 55.0493 27.0214C55.3089 26.9679 55.5498 26.8469 55.7479 26.6707C55.9459 26.4945 56.0941 26.2693 56.1775 26.0177L58.6616 18.525C58.745 18.2733 58.7607 18.0041 58.7071 17.7445C58.6535 17.4848 58.5325 17.2438 58.3562 17.0457C58.18 16.8476 57.9547 16.6994 57.703 16.616C57.4514 16.5326 57.1821 16.5169 56.9225 16.5705Z" fill="#1D1D1B"/>
<path d="M28.5005 30.3976C27.997 30.3976 27.514 30.1975 27.158 29.8414C26.8019 29.4854 26.6018 29.0024 26.6018 28.4989V13.6789C26.5975 13.4268 26.6434 13.1764 26.7368 12.9423C26.8302 12.7081 26.9694 12.4949 27.1461 12.3151C27.3228 12.1353 27.5336 11.9925 27.7661 11.895C27.9985 11.7975 28.2481 11.7473 28.5002 11.7473C28.7523 11.7473 29.0019 11.7975 29.2344 11.895C29.4669 11.9925 29.6777 12.1353 29.8544 12.3151C30.0311 12.4949 30.1702 12.7081 30.2637 12.9423C30.3571 13.1764 30.403 13.4268 30.3986 13.6789V28.5C30.3983 29.0033 30.1982 29.4858 29.8423 29.8416C29.4864 30.1975 29.0038 30.3974 28.5005 30.3976Z" fill="#0094DA"/>
<path d="M18.0194 40.8795C17.6434 40.8802 17.2755 40.7692 16.9626 40.5606C16.6497 40.352 16.4058 40.0551 16.2618 39.7077C16.1179 39.3603 16.0803 38.9779 16.1539 38.6091C16.2275 38.2403 16.409 37.9017 16.6754 37.6362L27.1582 27.1573C27.517 26.8148 27.9955 26.6262 28.4915 26.632C28.9874 26.6377 29.4615 26.8373 29.8121 27.1881C30.1628 27.5388 30.3623 28.0129 30.368 28.5089C30.3736 29.0048 30.185 29.4833 29.8424 29.842L19.3618 40.3232C19.1858 40.4998 18.9765 40.6399 18.7462 40.7354C18.5158 40.8308 18.2688 40.8798 18.0194 40.8795Z" fill="#0094DA"/>
</g>
<defs>
<clipPath id="clip0_1_676">
<rect width="58.7402" height="57" fill="white"/>
</clipPath>
</defs>
</svg>
