<svg width="31" height="30" viewBox="0 0 31 30" fill="none" xmlns="http://www.w3.org/2000/svg">
<g clip-path="url(#clip0_1_1598)">
<path d="M29.9592 8.7213L28.7316 8.9748C26.3559 3.5739 20.9523 0 15 0C6.7287 0 0 6.729 0 15C0 23.271 6.7287 30 15 30C19.5522 30 23.8062 27.9672 26.67 24.4233C26.7437 24.3351 26.7992 24.2331 26.8331 24.1233C26.8671 24.0135 26.8788 23.898 26.8676 23.7836C26.8564 23.6691 26.8226 23.5581 26.7681 23.4569C26.7136 23.3557 26.6394 23.2663 26.55 23.1941C26.4606 23.1218 26.3577 23.0681 26.2473 23.036C26.137 23.0039 26.0213 22.9941 25.9071 23.0072C25.7929 23.0203 25.6824 23.056 25.5821 23.1122C25.4818 23.1684 25.3938 23.244 25.323 23.3346C22.7898 26.4687 19.0266 28.2687 15 28.2687C7.6839 28.2687 1.7316 22.3161 1.7316 15C1.7316 7.6839 7.6839 1.7319 15 1.7319C20.1411 1.7319 24.8217 4.7445 26.9955 9.333L25.89 9.5613C25.7531 9.58927 25.6261 9.65282 25.5216 9.74555C25.4171 9.83828 25.3389 9.95691 25.2949 10.0895C25.2509 10.2221 25.2426 10.3639 25.2709 10.5007C25.2991 10.6375 25.363 10.7644 25.4559 10.8687L28.2189 13.9716C28.3116 14.0759 28.4301 14.1539 28.5626 14.1978C28.695 14.2417 28.8367 14.25 28.9733 14.2218C29.1099 14.1936 29.2368 14.13 29.341 14.0372C29.4452 13.9445 29.5232 13.8259 29.5671 13.6935L30.8745 9.75C30.9184 9.61754 30.9267 9.47585 30.8985 9.33919C30.8702 9.20252 30.8066 9.07569 30.7138 8.97144C30.621 8.86718 30.5025 8.78918 30.37 8.74527C30.2376 8.70137 30.0959 8.6931 29.9592 8.7213Z" fill="#1D1D1B"/>
<path d="M14.9994 15.9985C14.7344 15.9985 14.4802 15.8932 14.2928 15.7058C14.1054 15.5184 14.0002 15.2643 14.0002 14.9992V7.19923C13.9979 7.06656 14.022 6.93477 14.0712 6.81153C14.1204 6.68829 14.1936 6.57609 14.2866 6.48145C14.3796 6.38682 14.4905 6.31166 14.6129 6.26035C14.7353 6.20904 14.8666 6.18262 14.9993 6.18262C15.132 6.18262 15.2633 6.20904 15.3857 6.26035C15.5081 6.31166 15.619 6.38682 15.712 6.48145C15.805 6.57609 15.8782 6.68829 15.9274 6.81153C15.9766 6.93477 16.0007 7.06656 15.9985 7.19923V14.9998C15.9983 15.2647 15.893 15.5187 15.7057 15.7059C15.5183 15.8932 15.2643 15.9985 14.9994 15.9985Z" fill="#0094DA"/>
<path d="M9.48165 21.5154C9.28371 21.5157 9.09013 21.4573 8.92544 21.3475C8.76075 21.2377 8.63238 21.0815 8.5566 20.8986C8.48082 20.7158 8.46106 20.5145 8.4998 20.3204C8.53855 20.1263 8.63407 19.9481 8.77425 19.8084L14.2915 14.2932C14.4804 14.1129 14.7322 14.0136 14.9932 14.0167C15.2543 14.0197 15.5038 14.1248 15.6883 14.3094C15.8729 14.494 15.9779 14.7435 15.9809 15.0045C15.9839 15.2656 15.8846 15.5174 15.7042 15.7062L10.1881 21.2226C10.0955 21.3155 9.98539 21.3893 9.86414 21.4395C9.74289 21.4898 9.6129 21.5155 9.48165 21.5154Z" fill="#0094DA"/>
</g>
<defs>
<clipPath id="clip0_1_1598">
<rect width="30.9159" height="30" fill="white"/>
</clipPath>
</defs>
</svg>
