<svg width="60" height="58" viewBox="0 0 60 58" fill="none" xmlns="http://www.w3.org/2000/svg">
<g clip-path="url(#clip0_1_668)">
<path d="M13.4148 57.3704C12.7474 57.3676 12.0983 57.1526 11.5612 56.7565C11.0162 56.3701 10.6103 55.8184 10.4036 55.1832C10.197 54.5479 10.2005 53.863 10.4137 53.2299L16.0412 35.9097L1.30958 25.2055C0.771239 24.8134 0.370739 24.2611 0.165421 23.6276C-0.0398971 22.9941 -0.0395053 22.3118 0.16654 21.6785C0.372586 21.0452 0.77372 20.4934 1.31251 20.102C1.85131 19.7105 2.50013 19.4996 3.1661 19.4994H21.375L27.0031 2.17918C27.2096 1.54642 27.611 0.995175 28.1497 0.604298C28.6885 0.213421 29.3371 0.00292969 30.0027 0.00292969C30.6683 0.00292969 31.3169 0.213421 31.8556 0.604298C32.3944 0.995175 32.7958 1.54642 33.0023 2.17918L38.6304 19.4994H56.8416C57.5073 19.5001 58.1558 19.7114 58.6942 20.103C59.2327 20.4946 59.6334 21.0464 59.8392 21.6796C60.0449 22.3128 60.0451 22.9948 59.8398 23.6281C59.6344 24.2614 59.234 24.8136 58.6958 25.2055L43.9624 35.9097L46.0071 42.2038C46.144 42.6252 46.108 43.0836 45.9069 43.4784C45.7058 43.8731 45.3562 44.1718 44.9348 44.3088C44.7262 44.3766 44.5063 44.4026 44.2876 44.3854C44.0689 44.3683 43.8558 44.3082 43.6603 44.2086C43.2656 44.0075 42.9669 43.6578 42.8299 43.2365L40.7439 36.8133C40.537 36.1797 40.5366 35.4968 40.7428 34.863C40.949 34.2292 41.3512 33.6772 41.8913 33.2867L56.2678 22.8424H38.4944C37.828 22.8434 37.1784 22.6329 36.6393 22.2411C36.1001 21.8493 35.6993 21.2965 35.4945 20.6623L30.0024 3.75745L24.508 20.6623C24.3033 21.2966 23.9025 21.8495 23.3634 22.2413C22.8242 22.6331 22.1746 22.8436 21.5081 22.8424H3.73981L18.1163 33.2867C18.6564 33.6773 19.0585 34.2292 19.2647 34.863C19.471 35.4968 19.4706 36.1797 19.2637 36.8133L13.7699 53.7164L28.1487 43.2698C28.6871 42.877 29.3363 42.6653 30.0027 42.6653C30.6691 42.6653 31.3183 42.877 31.8566 43.2698L45.8769 53.5042C46.0599 53.6311 46.2157 53.7934 46.335 53.9815C46.4544 54.1695 46.5349 54.3796 46.5719 54.5992C46.6089 54.8189 46.6015 55.0437 46.5503 55.2605C46.4991 55.4773 46.405 55.6816 46.2736 55.8615C46.1422 56.0413 45.9762 56.1931 45.7853 56.3079C45.5944 56.4226 45.3824 56.498 45.1619 56.5296C44.9414 56.5612 44.7168 56.5484 44.5014 56.4918C44.2859 56.4353 44.0839 56.3363 43.9073 56.2006L30.0024 46.0523L15.2713 56.7565C14.7334 57.1532 14.0831 57.3682 13.4148 57.3704Z" fill="#1D1D1B"/>
<path d="M41.7786 27.5688C41.6999 27.3171 41.5423 27.0975 41.329 26.9425C41.1157 26.7875 40.8581 26.7053 40.5945 26.7082H33.4053L31.1839 19.8713C31.1028 19.6212 30.9444 19.4032 30.7317 19.2486C30.519 19.094 30.2628 19.0107 29.9998 19.0107C29.7368 19.0107 29.4806 19.094 29.2679 19.2486C29.0552 19.4032 28.8969 19.6212 28.8157 19.8713L26.5943 26.7082H19.4057C19.1427 26.7081 18.8865 26.7912 18.6736 26.9458C18.4608 27.1003 18.3024 27.3182 18.2211 27.5683C18.1398 27.8185 18.1398 28.0879 18.2211 28.338C18.3024 28.5881 18.4609 28.8061 18.6737 28.9606L24.4899 33.1859L22.268 40.0228C22.1838 40.2727 22.1824 40.5431 22.2639 40.7939C22.3454 41.0447 22.5056 41.2625 22.7206 41.4152C22.9322 41.5724 23.1888 41.6572 23.4524 41.6572C23.716 41.6572 23.9725 41.5724 24.1841 41.4152L29.9998 37.1898L35.8155 41.4152C36.0271 41.5724 36.2837 41.6572 36.5472 41.6572C36.8108 41.6572 37.0674 41.5724 37.279 41.4152C37.494 41.2625 37.6541 41.0446 37.7355 40.7938C37.817 40.543 37.8154 40.2727 37.7311 40.0228L35.5103 33.1859L41.3265 28.9606C41.5415 28.808 41.7015 28.5902 41.783 28.3395C41.8644 28.0888 41.8629 27.8185 41.7786 27.5688Z" fill="#0094DA"/>
</g>
<defs>
<clipPath id="clip0_1_668">
<rect width="60" height="57.3707" fill="white"/>
</clipPath>
</defs>
</svg>
