<svg width="67" height="57" viewBox="0 0 67 57" fill="none" xmlns="http://www.w3.org/2000/svg">
<g clip-path="url(#clip0_1_682)">
<path d="M64.6642 9.38269H1.83978C1.3508 9.38269 0.881856 9.18844 0.536097 8.84268C0.190339 8.49693 -0.00390625 8.02798 -0.00390625 7.539C-0.00390625 7.05002 0.190339 6.58107 0.536097 6.23532C0.881856 5.88956 1.3508 5.69531 1.83978 5.69531H64.6642C65.1531 5.69531 65.6221 5.88956 65.9678 6.23532C66.3136 6.58107 66.5078 7.05002 66.5078 7.539C66.5078 8.02798 66.3136 8.49693 65.9678 8.84268C65.6221 9.18844 65.1531 9.38269 64.6642 9.38269Z" fill="#1D1D1B"/>
<path d="M64.6643 30.3433H1.83992C1.3571 30.3341 0.897144 30.1359 0.558932 29.7912C0.22072 29.4465 0.03125 28.9829 0.03125 28.4999C0.03125 28.017 0.22072 27.5534 0.558932 27.2087C0.897144 26.864 1.3571 26.6658 1.83992 26.6566H64.6643C64.9093 26.6519 65.1528 26.6962 65.3805 26.7867C65.6083 26.8773 65.8156 27.0123 65.9906 27.1839C66.1655 27.3556 66.3044 27.5603 66.3993 27.7863C66.4941 28.0123 66.543 28.2549 66.543 28.4999C66.543 28.745 66.4941 28.9876 66.3993 29.2136C66.3044 29.4395 66.1655 29.6443 65.9906 29.8159C65.8156 29.9876 65.6083 30.1226 65.3805 30.2132C65.1528 30.3037 64.9093 30.3479 64.6643 30.3433Z" fill="#1D1D1B"/>
<path d="M52.7514 51.3065H1.83978C1.3508 51.3065 0.881856 51.1123 0.536097 50.7665C0.190339 50.4208 -0.00390625 49.9518 -0.00390625 49.4628C-0.00390625 48.9738 0.190339 48.5049 0.536097 48.1591C0.881856 47.8134 1.3508 47.6191 1.83978 47.6191H52.7514C53.2403 47.6191 53.7093 47.8134 54.055 48.1591C54.4008 48.5049 54.595 48.9738 54.595 49.4628C54.595 49.9518 54.4008 50.4208 54.055 50.7665C53.7093 51.1123 53.2403 51.3065 52.7514 51.3065Z" fill="#1D1D1B"/>
<path d="M21.9311 6.83468C21.9311 5.48288 21.5302 4.16144 20.7792 3.03747C20.0282 1.9135 18.9607 1.03748 17.7118 0.520199C16.4629 0.00291733 15.0886 -0.132393 13.7628 0.131378C12.437 0.39515 11.2191 1.04616 10.2633 2.00207C9.3075 2.95798 8.65661 4.17587 8.39297 5.50171C8.12932 6.82755 8.26477 8.2018 8.78217 9.45066C9.29957 10.6995 10.1757 11.7669 11.2997 12.5178C12.4238 13.2688 13.7453 13.6695 15.0971 13.6694C16.9096 13.6692 18.6479 12.949 19.9295 11.6673C21.2111 10.3856 21.9311 8.64724 21.9311 6.83468Z" fill="#0094DA"/>
<path d="M31.8373 50.1657C31.8373 48.8139 31.4365 47.4925 30.6854 46.3685C29.9344 45.2446 28.8669 44.3685 27.618 43.8513C26.3691 43.334 24.9948 43.1987 23.669 43.4624C22.3432 43.7262 21.1254 44.3772 20.1696 45.3331C19.2137 46.289 18.5629 47.5069 18.2992 48.8328C18.0356 50.1586 18.171 51.5329 18.6884 52.7817C19.2058 54.0306 20.0819 55.098 21.206 55.8489C22.33 56.5998 23.6515 57.0006 25.0033 57.0004C26.8159 57.0002 28.5541 56.2801 29.8357 54.9984C31.1173 53.7166 31.8373 51.9783 31.8373 50.1657Z" fill="#0094DA"/>
<path d="M54.8959 28.5004C54.8961 27.1486 54.4953 25.8271 53.7444 24.7031C52.9935 23.579 51.9261 22.7029 50.6772 22.1855C49.4284 21.6681 48.0541 21.5326 46.7283 21.7963C45.4024 22.0599 44.1845 22.7108 43.2286 23.6666C42.2727 24.6225 41.6217 25.8403 41.3579 27.1661C41.0942 28.4919 41.2295 29.8662 41.7468 31.1151C42.264 32.364 43.1401 33.4315 44.264 34.1825C45.388 34.9335 46.7094 35.3344 48.0612 35.3344C49.8738 35.3344 51.6121 34.6144 52.8939 33.3328C54.1756 32.0512 54.8957 30.3129 54.8959 28.5004Z" fill="#0094DA"/>
</g>
<defs>
<clipPath id="clip0_1_682">
<rect width="66.5111" height="57" fill="white"/>
</clipPath>
</defs>
</svg>
