<svg width="35" height="30" viewBox="0 0 35 30" fill="none" xmlns="http://www.w3.org/2000/svg">
<g clip-path="url(#clip0_1_1605)">
<path d="M34.0319 4.93828H0.966455C0.709099 4.93828 0.462284 4.83605 0.280306 4.65407C0.098328 4.47209 -0.00390625 4.22528 -0.00390625 3.96792C-0.00390625 3.71056 0.098328 3.46375 0.280306 3.28177C0.462284 3.09979 0.709099 2.99756 0.966455 2.99756H34.0319C34.2893 2.99756 34.5361 3.09979 34.7181 3.28177C34.9 3.46375 35.0023 3.71056 35.0023 3.96792C35.0023 4.22528 34.9 4.47209 34.7181 4.65407C34.5361 4.83605 34.2893 4.93828 34.0319 4.93828Z" fill="#1D1D1B"/>
<path d="M34.033 15.9703H0.967557C0.713439 15.9655 0.471358 15.8612 0.293352 15.6797C0.115346 15.4983 0.015625 15.2543 0.015625 15.0001C0.015625 14.746 0.115346 14.502 0.293352 14.3205C0.471358 14.1391 0.713439 14.0348 0.967557 14.03H34.033C34.162 14.0275 34.2901 14.0508 34.41 14.0985C34.5298 14.1461 34.639 14.2172 34.731 14.3075C34.8231 14.3978 34.8962 14.5056 34.9462 14.6246C34.9961 14.7435 35.0218 14.8712 35.0218 15.0001C35.0218 15.1291 34.9961 15.2568 34.9462 15.3757C34.8962 15.4947 34.8231 15.6024 34.731 15.6928C34.639 15.7831 34.5298 15.8542 34.41 15.9018C34.2901 15.9495 34.162 15.9728 34.033 15.9703Z" fill="#1D1D1B"/>
<path d="M27.762 27.0032H0.966455C0.7091 27.0032 0.462284 26.901 0.280306 26.719C0.098328 26.537 -0.00390625 26.2902 -0.00390625 26.0329C-0.00390625 25.7755 0.098328 25.5287 0.280306 25.3467C0.462284 25.1647 0.7091 25.0625 0.966455 25.0625H27.762C28.0194 25.0625 28.2662 25.1647 28.4482 25.3467C28.6302 25.5287 28.7324 25.7755 28.7324 26.0329C28.7324 26.2902 28.6302 26.537 28.4482 26.719C28.2662 26.901 28.0194 27.0032 27.762 27.0032Z" fill="#1D1D1B"/>
<path d="M11.5421 3.5972C11.5421 2.88573 11.3311 2.19023 10.9358 1.59867C10.5405 1.0071 9.97869 0.546042 9.32137 0.273789C8.66404 0.00153544 7.94075 -0.0696807 7.24295 0.0691464C6.54515 0.207974 5.90419 0.550608 5.40113 1.05372C4.89807 1.55683 4.55549 2.19783 4.41673 2.89564C4.27798 3.59345 4.34926 4.31674 4.62158 4.97403C4.8939 5.63133 5.35501 6.19311 5.94662 6.58833C6.53822 6.98356 7.23373 7.19447 7.94521 7.1944C8.89918 7.19431 9.81406 6.81528 10.4886 6.14068C11.1631 5.46609 11.5421 4.55118 11.5421 3.5972Z" fill="#0094DA"/>
<path d="M16.7569 26.4029C16.7569 25.6914 16.5459 24.9959 16.1506 24.4043C15.7554 23.8128 15.1935 23.3517 14.5362 23.0795C13.8789 22.8072 13.1556 22.736 12.4578 22.8748C11.76 23.0136 11.119 23.3563 10.616 23.8594C10.1129 24.3625 9.77034 25.0035 9.63158 25.7013C9.49282 26.3991 9.56411 27.1224 9.83642 27.7797C10.1087 28.437 10.5699 28.9988 11.1615 29.394C11.7531 29.7892 12.4486 30.0001 13.1601 30.0001C14.114 30 15.0289 29.6209 15.7034 28.9463C16.378 28.2718 16.7569 27.3568 16.7569 26.4029Z" fill="#0094DA"/>
<path d="M28.8936 15.0004C28.8937 14.2889 28.6828 13.5934 28.2876 13.0018C27.8923 12.4102 27.3305 11.9491 26.6733 11.6768C26.016 11.4044 25.2927 11.3332 24.5949 11.4719C23.897 11.6107 23.2561 11.9532 22.7529 12.4563C22.2498 12.9594 21.9072 13.6003 21.7684 14.2981C21.6295 14.9959 21.7008 15.7192 21.973 16.3765C22.2453 17.0339 22.7063 17.5957 23.2979 17.991C23.8894 18.3863 24.5849 18.5972 25.2964 18.5972C26.2504 18.5972 27.1653 18.2183 27.8399 17.5438C28.5145 16.8692 28.8935 15.9544 28.8936 15.0004Z" fill="#0094DA"/>
</g>
<defs>
<clipPath id="clip0_1_1605">
<rect width="35.0058" height="30" fill="white"/>
</clipPath>
</defs>
</svg>
