<svg width="32" height="30" viewBox="0 0 32 30" fill="none" xmlns="http://www.w3.org/2000/svg">
<g clip-path="url(#clip0_1_1590)">
<path d="M7.01648 29.9998C6.66751 29.9983 6.32805 29.8859 6.04718 29.6788C5.76223 29.4767 5.54998 29.1882 5.4419 28.856C5.33382 28.5239 5.33568 28.1657 5.44718 27.8347L8.38988 18.7777L0.686485 13.1803C0.404977 12.9753 0.19555 12.6864 0.0881857 12.3552C-0.0191782 12.0239 -0.0189733 11.6671 0.088771 11.336C0.196515 11.0048 0.406274 10.7162 0.688017 10.5115C0.96976 10.3069 1.30904 10.1966 1.65728 10.1965H11.179L14.122 1.13946C14.23 0.808576 14.4399 0.520325 14.7216 0.315929C15.0033 0.111534 15.3425 0.00146484 15.6905 0.00146484C16.0386 0.00146484 16.3777 0.111534 16.6595 0.315929C16.9412 0.520325 17.1511 0.808576 17.2591 1.13946L20.2021 10.1965H29.725C30.0731 10.1968 30.4122 10.3073 30.6938 10.5121C30.9753 10.7168 31.1849 11.0054 31.2925 11.3365C31.4001 11.6676 31.4002 12.0243 31.2928 12.3554C31.1854 12.6866 30.976 12.9753 30.6946 13.1803L22.9903 18.7777L24.0595 22.069C24.1311 22.2893 24.1122 22.529 24.0071 22.7354C23.9019 22.9419 23.7191 23.098 23.4988 23.1697C23.3897 23.2051 23.2747 23.2187 23.1603 23.2097C23.046 23.2008 22.9345 23.1693 22.8323 23.1173C22.6259 23.0121 22.4697 22.8293 22.3981 22.609L21.3073 19.2502C21.1991 18.9189 21.1989 18.5617 21.3067 18.2303C21.4145 17.8989 21.6248 17.6103 21.9073 17.4061L29.425 11.9446H20.131C19.7825 11.9451 19.4428 11.835 19.1609 11.6301C18.879 11.4253 18.6694 11.1362 18.5623 10.8046L15.6904 1.96476L12.8173 10.8046C12.7103 11.1362 12.5007 11.4254 12.2187 11.6302C11.9368 11.8351 11.5971 11.9452 11.2486 11.9446H1.95728L9.47499 17.4061C9.7574 17.6103 9.96768 17.8989 10.0755 18.2303C10.1833 18.5617 10.1832 18.9188 10.075 19.2502L7.20218 28.0891L14.7211 22.6264C15.0026 22.4209 15.3421 22.3102 15.6905 22.3102C16.039 22.3102 16.3785 22.4209 16.66 22.6264L23.9914 27.9781C24.0871 28.0444 24.1686 28.1293 24.231 28.2276C24.2934 28.326 24.3355 28.4358 24.3548 28.5507C24.3742 28.6655 24.3703 28.7831 24.3435 28.8965C24.3168 29.0098 24.2676 29.1167 24.1989 29.2107C24.1302 29.3048 24.0433 29.3842 23.9435 29.4442C23.8437 29.5042 23.7328 29.5436 23.6175 29.5601C23.5022 29.5766 23.3848 29.5699 23.2721 29.5404C23.1595 29.5108 23.0538 29.459 22.9615 29.3881L15.6904 24.0814L7.98729 29.6788C7.70601 29.8862 7.36597 29.9986 7.01648 29.9998Z" fill="#1D1D1B"/>
<path d="M21.8465 14.416C21.8054 14.2844 21.7229 14.1696 21.6114 14.0885C21.4999 14.0075 21.3652 13.9645 21.2273 13.966H17.468L16.3064 10.3909C16.264 10.2601 16.1812 10.1462 16.07 10.0653C15.9587 9.98446 15.8247 9.94092 15.6872 9.94092C15.5497 9.94092 15.4157 9.98446 15.3045 10.0653C15.1933 10.1462 15.1105 10.2601 15.068 10.3909L13.9064 13.966H10.1474C10.0099 13.966 9.87589 14.0095 9.7646 14.0903C9.65332 14.1711 9.57048 14.285 9.52797 14.4158C9.48546 14.5466 9.48547 14.6875 9.52798 14.8183C9.5705 14.9491 9.65334 15.063 9.76462 15.1438L12.806 17.3533L11.6441 20.9284C11.6001 21.0591 11.5994 21.2005 11.642 21.3317C11.6846 21.4628 11.7684 21.5767 11.8808 21.6565C11.9915 21.7387 12.1256 21.7831 12.2635 21.7831C12.4013 21.7831 12.5355 21.7387 12.6461 21.6565L15.6872 19.447L18.7283 21.6565C18.839 21.7387 18.9731 21.7831 19.111 21.7831C19.2488 21.7831 19.383 21.7387 19.4936 21.6565C19.6061 21.5767 19.6898 21.4628 19.7324 21.3316C19.7749 21.2005 19.7741 21.0591 19.73 20.9284L18.5687 17.3533L21.6101 15.1438C21.7225 15.0641 21.8062 14.9502 21.8488 14.8191C21.8914 14.688 21.8906 14.5466 21.8465 14.416Z" fill="#0094DA"/>
</g>
<defs>
<clipPath id="clip0_1_1590">
<rect width="31.3749" height="30" fill="white"/>
</clipPath>
</defs>
</svg>
