<svg width="243" height="243" viewBox="0 0 243 243" fill="none" xmlns="http://www.w3.org/2000/svg">
<path d="M113.706 15.5C117.17 9.49999 125.83 9.5 129.294 15.5L217.196 167.75C220.66 173.75 216.33 181.25 209.402 181.25H33.5984C26.6702 181.25 22.3401 173.75 25.8042 167.75L113.706 15.5Z" stroke="#0095DB" stroke-width="2"/>
<path d="M106.62 81.0002C105.798 80.9944 105.069 81.525 104.822 82.3084L86.1137 138.434C85.3244 140.801 88.8761 141.985 89.6653 139.618L108.374 83.4923C108.8 82.2796 107.905 81.0078 106.62 81.0002ZM112.24 81.0002C111.351 80.9907 110.578 81.6077 110.391 82.4764L97.2949 138.602C96.5632 141.129 100.474 142.04 100.934 139.45L114.03 83.3242C114.322 82.1534 113.446 81.0163 112.24 81.0002ZM121.535 81.0002C120.502 81.0164 119.678 81.8671 119.694 82.9003V86.642C119.658 89.172 123.471 89.172 123.436 86.642V82.9003C123.452 81.8442 122.592 80.9837 121.535 81.0002ZM130.831 81.0002C129.625 81.0163 128.749 82.1534 129.041 83.3242L142.137 139.45C142.597 142.04 146.508 141.129 145.776 138.602L132.68 82.4764C132.493 81.6077 131.72 80.9907 130.831 81.0002ZM136.451 81.0002C135.166 81.0078 134.27 82.2796 134.697 83.4923L153.406 139.618C154.195 141.985 157.747 140.801 156.957 138.434L138.249 82.3084C138.002 81.525 137.273 80.9944 136.451 81.0002ZM121.535 99.7087C120.502 99.7248 119.678 100.576 119.694 101.609V112.834C119.658 115.364 123.471 115.364 123.436 112.834V101.609C123.452 100.553 122.592 99.6922 121.535 99.7087ZM121.535 125.901C120.502 125.917 119.678 126.767 119.694 127.801V139.026C119.658 141.556 123.471 141.556 123.436 139.026V127.801C123.452 126.744 122.592 125.884 121.535 125.901Z" fill="#222222"/>
<path d="M121.537 81.0002C120.504 81.0164 119.679 81.8671 119.696 82.9003V86.642C119.66 89.172 123.473 89.172 123.437 86.642V82.9003C123.454 81.8442 122.593 80.9837 121.537 81.0002ZM121.537 99.7087C120.504 99.7248 119.679 100.576 119.696 101.609V112.834C119.66 115.364 123.473 115.364 123.437 112.834V101.609C123.454 100.553 122.593 99.6922 121.537 99.7087ZM121.537 125.901C120.504 125.917 119.679 126.767 119.696 127.801V139.026C119.66 141.556 123.473 141.556 123.437 139.026V127.801C123.454 126.744 122.593 125.884 121.537 125.901Z" fill="#0095DB"/>
</svg>
