<svg width="243" height="243" viewBox="0 0 243 243" fill="none" xmlns="http://www.w3.org/2000/svg">
<path d="M113.706 15.5C117.17 9.49999 125.83 9.5 129.294 15.5L217.196 167.75C220.66 173.75 216.33 181.25 209.402 181.25H33.5984C26.6702 181.25 22.3401 173.75 25.8042 167.75L113.706 15.5Z" stroke="#0095DB" stroke-width="2"/>
<path d="M116 141C104.686 141 99.0294 141 95.5147 137.485C92 133.971 92 131.314 92 120" stroke="#1E1E1E" stroke-width="4.5" stroke-linecap="round"/>
<path d="M152 120C152 131.314 152 133.971 148.485 137.485C144.971 141 139.314 141 128 141" stroke="#1E1E1E" stroke-width="4.5" stroke-linecap="round"/>
<path d="M128 81C139.314 81 144.971 81 148.485 84.5147C152 88.0294 152 90.6863 152 102" stroke="#1E1E1E" stroke-width="4.5" stroke-linecap="round"/>
<path d="M116 81C104.686 81 99.0294 81 95.5147 84.5147C92 88.0294 92 90.6863 92 102" stroke="#1E1E1E" stroke-width="4.5" stroke-linecap="round"/>
<path d="M103.677 117.179C101.892 115.109 101 114.074 101 111C101 107.926 101.892 106.891 103.677 104.821C107.241 100.687 113.218 96 122 96C130.782 96 136.759 100.687 140.323 104.821C142.108 106.891 143 107.926 143 111C143 114.074 142.108 115.109 140.323 117.179C136.759 121.313 130.782 126 122 126C113.218 126 107.241 121.313 103.677 117.179Z" stroke="#0095DB" stroke-width="4.5"/>
<circle cx="122" cy="111" r="6" fill="#1E1E1E"/>
</svg>
