<svg width="243" height="243" viewBox="0 0 243 243" fill="none" xmlns="http://www.w3.org/2000/svg">
<path d="M129.294 15.5L217.196 167.75C220.66 173.75 216.33 181.25 209.402 181.25H33.5984C26.6702 181.25 22.3401 173.75 25.8042 167.75L113.706 15.5C117.17 9.49999 125.83 9.5 129.294 15.5Z" stroke="#0095DB" stroke-width="2"/>
<path d="M99 103.5H114M129 126H144M129 103.5H144M99 126H114" stroke="#0095DB" stroke-width="4.5" stroke-linecap="round" stroke-linejoin="round"/>
<path d="M114 141H129V92.25L121.5 81L114 92.25V141ZM84 141H99V92.25L91.5 81L84 92.25V141ZM144 141H159V92.25L151.5 81L144 92.25V141Z" stroke="#1E1E1E" stroke-width="4.5" stroke-linecap="round" stroke-linejoin="round"/>
</svg>
