<svg width="243" height="243" viewBox="0 0 243 243" fill="none" xmlns="http://www.w3.org/2000/svg">
<path d="M113.706 15.5C117.17 9.49999 125.83 9.5 129.294 15.5L217.196 167.75C220.66 173.75 216.33 181.25 209.402 181.25H33.5984C26.6702 181.25 22.3401 173.75 25.8042 167.75L113.706 15.5Z" stroke="#0095DB" stroke-width="2"/>
<path d="M110.953 111.595L122.593 99.9547M131.905 109.267L120.265 120.907" stroke="#0095DB" stroke-width="4.5"/>
<path d="M96.2947 121.858C93.5821 119.145 92.2258 117.789 92.0324 116.133C91.9892 115.763 91.9892 115.39 92.0324 115.02C92.2258 113.364 93.5821 112.007 96.2947 109.295C99.0073 106.582 100.364 105.226 102.02 105.032C102.39 104.989 102.763 104.989 103.133 105.032C104.789 105.226 106.145 106.582 108.858 109.295L123.705 124.142C126.418 126.855 127.774 128.211 127.968 129.867C128.011 130.237 128.011 130.61 127.968 130.98C127.774 132.636 126.418 133.993 123.705 136.705C120.993 139.418 119.636 140.774 117.98 140.968C117.61 141.011 117.237 141.011 116.867 140.968C115.211 140.774 113.855 139.418 111.142 136.705L96.2947 121.858Z" stroke="#1E1E1E" stroke-width="4.5"/>
<path d="M120.295 97.8579C117.582 95.1453 116.226 93.789 116.032 92.1328C115.989 91.763 115.989 91.3895 116.032 91.0198C116.226 89.3636 117.582 88.0073 120.295 85.2947C123.007 82.5821 124.364 81.2258 126.02 81.0324C126.39 80.9892 126.763 80.9892 127.133 81.0324C128.789 81.2258 130.145 82.5821 132.858 85.2947L147.705 100.142C150.418 102.855 151.774 104.211 151.968 105.867C152.011 106.237 152.011 106.61 151.968 106.98C151.774 108.636 150.418 109.993 147.705 112.705C144.993 115.418 143.636 116.774 141.98 116.968C141.61 117.011 141.237 117.011 140.867 116.968C139.211 116.774 137.855 115.418 135.142 112.705L120.295 97.8579Z" stroke="#1E1E1E" stroke-width="4.5"/>
<path d="M140.055 82.4941L149.367 91.8062" stroke="#0095DB" stroke-width="4.5" stroke-linecap="round" stroke-linejoin="round"/>
<path d="M93.4922 129.054L102.804 138.366" stroke="#0095DB" stroke-width="4.5" stroke-linecap="round" stroke-linejoin="round"/>
</svg>
