<svg width="243" height="243" viewBox="0 0 243 243" fill="none" xmlns="http://www.w3.org/2000/svg">
<path d="M136.609 117.261C140.849 113.433 143.495 108.012 143.495 102C143.495 98.6606 142.679 95.5033 141.226 92.7C137.634 85.7673 130.15 81 121.5 81C109.352 81 99.5039 90.402 99.5039 102C99.5039 108.012 102.15 113.433 106.39 117.261C107.883 118.609 108.931 120.405 108.931 122.366V129C108.931 135.627 114.558 141 121.5 141C128.441 141 134.069 135.627 134.069 129V124.2M115.215 110.1L121.5 117.261M121.5 117.261L127.784 110.1M121.5 117.261V126.9" stroke="#1D1D1B" stroke-width="4.5" stroke-linecap="round" stroke-linejoin="round"/>
<path d="M108.504 128.7H131.904" stroke="#0095DB" stroke-width="4.14" stroke-linecap="round"/>
<path d="M136.609 117.261C140.849 113.433 143.495 108.012 143.495 102C143.495 98.6606 142.679 95.5033 141.226 92.7C137.634 85.7673 130.15 81 121.5 81C109.352 81 99.5039 90.402 99.5039 102C99.5039 108.012 102.15 113.433 106.39 117.261C107.883 118.609 108.931 120.405 108.931 122.366V129C108.931 135.627 114.558 141 121.5 141C128.441 141 134.069 135.627 134.069 129V124.2M115.215 110.1L121.5 117.261L127.784 110.1" stroke="#1D1D1B" stroke-width="4.5" stroke-linecap="round" stroke-linejoin="round"/>
<path d="M121.43 87.5996L116.082 95.5239C115.921 95.763 116.092 96.0853 116.38 96.0853H123.926C124.232 96.0853 124.398 96.4444 124.2 96.6782L118.158 103.8" stroke="#0095DB" stroke-width="4.5" stroke-linecap="round"/>
<path d="M129.294 15.5L217.196 167.75C220.66 173.75 216.33 181.25 209.402 181.25H33.5984C26.6702 181.25 22.3401 173.75 25.8042 167.75L113.706 15.5C117.17 9.49999 125.83 9.5 129.294 15.5Z" stroke="#0095DB" stroke-width="2"/>
</svg>
