<svg width="45" height="45" viewBox="0 0 45 45" fill="none" xmlns="http://www.w3.org/2000/svg">
<circle cx="22.5" cy="22.5" r="21.5" stroke="#0095DB" stroke-width="2"/>
<path d="M29.7127 26.1307C31.737 24.2166 33 21.5058 33 18.5C33 16.8303 32.6103 15.2516 31.9168 13.85C30.2019 10.3836 26.6293 8 22.5 8C16.701 8 12 12.701 12 18.5C12 21.5058 13.263 24.2166 15.2873 26.1307C15.9999 26.8045 16.5 27.7024 16.5 28.6831V32C16.5 35.3137 19.1863 38 22.5 38C25.8137 38 28.5 35.3137 28.5 32V29.6M19.5 22.5499L22.5 26.1307M22.5 26.1307L25.5 22.5499M22.5 26.1307V30.95" stroke="#1D1D1B" stroke-width="2.25" stroke-linecap="round" stroke-linejoin="round"/>
<path d="M16.5 31.8501H28.2" stroke="#0095DB" stroke-width="2.07" stroke-linecap="round"/>
<path d="M29.7127 26.1307C31.737 24.2166 33 21.5058 33 18.5C33 16.8303 32.6103 15.2516 31.9168 13.85C30.2019 10.3836 26.6293 8 22.5 8C16.701 8 12 12.701 12 18.5C12 21.5058 13.263 24.2166 15.2873 26.1307C15.9999 26.8045 16.5 27.7024 16.5 28.6831V32C16.5 35.3137 19.1863 38 22.5 38C25.8137 38 28.5 35.3137 28.5 32V29.6M19.5 22.5499L22.5 26.1307L25.5 22.5499" stroke="#1D1D1B" stroke-width="2.25" stroke-linecap="round" stroke-linejoin="round"/>
<path d="M22.9632 11.3L20.2891 15.2622C20.2084 15.3818 20.294 15.5429 20.4383 15.5429H24.2108C24.3642 15.5429 24.4473 15.7224 24.3481 15.8394L21.3269 19.4" stroke="#0095DB" stroke-width="2.25" stroke-linecap="round"/>
</svg>
