<svg width="280" height="248" viewBox="0 0 280 248" fill="none" xmlns="http://www.w3.org/2000/svg">
<path d="M151.5 191.333V222.987C151.5 225.196 153.291 226.987 155.5 226.987H157.959C158.847 226.987 159.295 228.059 158.67 228.69L141.446 246.115C140.657 246.913 139.366 246.906 138.586 246.1L121.738 228.682C121.124 228.048 121.574 226.987 122.457 226.987H124.5C126.709 226.987 128.5 225.196 128.5 222.987V191.333C128.5 185.258 123.575 180.333 117.5 180.333L19.7037 180.333C9.59326 180.333 1 169.687 1 156V25.3333C1 11.646 9.59326 1 19.7037 1H260.296C270.407 1 279 11.646 279 25.3333V156C279 169.687 270.407 180.333 260.296 180.333L162.5 180.333C156.425 180.333 151.5 185.258 151.5 191.333Z" stroke="#0095DB" stroke-width="2"/>
</svg>
