<svg width="609" height="541" viewBox="0 0 609 541" fill="none" xmlns="http://www.w3.org/2000/svg">
<path d="M330.688 404.71V488.908C330.688 491.117 332.478 492.908 334.688 492.908H349.191C350.079 492.908 350.527 493.979 349.903 494.611L305.946 539.113C305.157 539.912 303.865 539.905 303.085 539.097L260.079 494.603C259.466 493.968 259.916 492.908 260.798 492.908H274.312C276.522 492.908 278.312 491.117 278.312 488.908V404.71C278.312 398.634 273.388 393.71 267.312 393.71L42.8556 393.71C19.9593 393.71 1 369.718 1 339.566V55.1432C1 24.9915 19.9593 1 42.8556 1H566.144C589.041 1 608 24.9915 608 55.1432V339.566C608 369.718 589.041 393.71 566.144 393.71L341.687 393.71C335.612 393.71 330.688 398.634 330.688 404.71Z" stroke="#0095DB" stroke-width="2"/>
</svg>
