<svg width="643" height="273" viewBox="0 0 643 273" fill="none" xmlns="http://www.w3.org/2000/svg">
<path d="M139.5 272H603.5C624.487 272 641.5 254.987 641.5 234V39C641.5 18.0132 624.487 1 603.5 1H139.5C118.513 1 101.5 18.0132 101.5 39V112.824C101.5 118.346 97.0228 122.824 91.5 122.824H36.5192C34.8624 122.824 33.5192 121.48 33.5192 119.824V111.012C33.5192 108.372 30.3567 107.019 28.4476 108.842L2.27295 133.83C1.03503 135.012 1.03503 136.988 2.27295 138.17L28.4476 163.158C30.3567 164.981 33.5192 163.628 33.5192 160.988V151.235C33.5192 149.578 34.8624 148.235 36.5192 148.235H91.5C97.0228 148.235 101.5 152.712 101.5 158.235V234C101.5 254.987 118.513 272 139.5 272Z" fill="#F9F9F9" stroke="#0095DB" stroke-width="2"/>
</svg>
