<svg width="540" height="373" viewBox="0 0 540 373" fill="none" xmlns="http://www.w3.org/2000/svg">
<path d="M281.235 282V335.981C281.235 338.19 283.026 339.981 285.235 339.981H295.128C296.874 339.981 297.782 342.06 296.595 343.34L271.467 370.447C270.675 371.301 269.325 371.301 268.533 370.447L243.405 343.34C242.218 342.06 243.126 339.981 244.872 339.981H253.824C256.033 339.981 257.824 338.19 257.824 335.981V282C257.824 275.925 252.899 271 246.824 271H38C17.5655 271 1 254.435 1 234V38C1 17.5655 17.5655 1 38 1H502C522.435 1 539 17.5655 539 38V234C539 254.435 522.435 271 502 271H292.235C286.16 271 281.235 275.925 281.235 282Z" stroke="#0095DB" stroke-width="2"/>
</svg>
