<svg width="643" height="273" viewBox="0 0 643 273" fill="none" xmlns="http://www.w3.org/2000/svg">
<path d="M503 1H39C18.0132 1 1 18.0132 1 39V234C1 254.987 18.0132 272 39 272H503C523.987 272 541 254.987 541 234V160.176C541 154.654 545.477 150.176 551 150.176H605.981C607.638 150.176 608.981 151.52 608.981 153.176V161.988C608.981 164.628 612.143 165.981 614.052 164.158L640.227 139.17C641.465 137.988 641.465 136.012 640.227 134.83L614.052 109.842C612.143 108.019 608.981 109.372 608.981 112.012V121.765C608.981 123.422 607.638 124.765 605.981 124.765H551C545.477 124.765 541 120.288 541 114.765V39C541 18.0132 523.987 1 503 1Z" fill="#F9F9F9" stroke="#0095DB" stroke-width="2"/>
</svg>
