<svg width="21" height="21" viewBox="0 0 21 21" fill="none" xmlns="http://www.w3.org/2000/svg">
<g clip-path="url(#clip0_1_1568)">
<path d="M13.7856 13.748C13.7536 13.7756 13.0039 14.4397 13.0039 15.6663V17.333C13.0039 17.517 13.1529 17.6663 13.3372 17.6663C13.5216 17.6663 13.6705 17.517 13.6705 17.333V15.6663C13.6705 14.755 14.2016 14.2703 14.2395 14.2353L16.5729 11.902C16.7052 11.7696 16.8702 11.693 17.0375 11.6863C17.2075 11.6789 17.3535 11.7403 17.4752 11.8616C17.5965 11.9833 17.6575 12.1346 17.6505 12.2993C17.6438 12.4666 17.5672 12.6316 17.4348 12.7639L15.7683 14.4306C15.6379 14.561 15.6379 14.7716 15.7683 14.902C15.8986 15.0323 16.1093 15.0323 16.2396 14.902L17.9063 13.2356C18.1573 12.9846 18.303 12.6616 18.317 12.3263C18.3313 11.9759 18.2 11.6433 17.9466 11.3903C17.6933 11.1373 17.3649 11.007 17.0103 11.0199C16.6753 11.0339 16.3523 11.1796 16.1016 11.4306L13.7856 13.748Z" fill="#1E1E1E"/>
<path d="M4.00262 17.333C4.08797 17.333 4.17328 17.3003 4.23828 17.2353C4.36863 17.105 4.36863 16.8943 4.23828 16.764L1.55262 14.08C1.53027 14.0604 1.00262 13.5896 1.00262 12.6663V7.66633C1.00262 7.29867 1.3016 6.99965 1.6693 6.99965C2.03695 6.99965 2.33598 7.29863 2.33598 7.66633V10.3053C2.33598 10.4893 2.48496 10.6386 2.6693 10.6386C2.85363 10.6386 3.00262 10.4893 3.00262 10.3053V7.66633C3.00262 6.93098 2.40461 6.33301 1.6693 6.33301C0.933945 6.33297 0.335938 6.93098 0.335938 7.66629V12.6663C0.335938 13.9109 1.08895 14.5606 1.10027 14.5686L3.76695 17.2353C3.83195 17.3003 3.91727 17.333 4.00262 17.333Z" fill="#1E1E1E"/>
<path d="M2.35653 12.3262C2.37051 12.6615 2.51618 12.9845 2.76719 13.2352L4.43387 14.9018C4.56423 15.0322 4.77489 15.0322 4.9052 14.9018C5.03551 14.7715 5.03551 14.5608 4.9052 14.4305L3.23852 12.7635C3.10618 12.6315 3.02954 12.4665 3.02286 12.2992C3.01587 12.1345 3.07684 11.9832 3.19821 11.8615C3.31989 11.7402 3.46688 11.6789 3.63587 11.6862C3.80321 11.6929 3.96821 11.7695 4.10051 11.9019L6.4495 14.2499C6.47184 14.2702 7.00282 14.7549 7.00282 15.6662V17.3329C7.00282 17.5168 7.1518 17.6662 7.33614 17.6662C7.52048 17.6662 7.66946 17.5168 7.66946 17.3329V15.6662C7.66946 14.4395 6.91981 13.7755 6.90512 13.7638L4.57184 11.4305C4.32118 11.1795 3.99817 11.0338 3.66317 11.0198C3.30715 11.0075 2.97985 11.1372 2.72684 11.3902C2.47352 11.6432 2.34219 11.9759 2.35653 12.3262Z" fill="#1E1E1E"/>
<path d="M8.00262 18.333H2.66926C2.48492 18.333 2.33594 18.4823 2.33594 18.6663V19.9996C2.33594 20.1836 2.48492 20.333 2.66926 20.333C2.85359 20.333 3.00258 20.1836 3.00258 19.9996V18.9996H7.66926V19.9996C7.66926 20.1836 7.81824 20.333 8.00258 20.333C8.18691 20.333 8.3359 20.1836 8.3359 19.9996V18.6663C8.33594 18.4823 8.18695 18.333 8.00262 18.333Z" fill="#0095DB"/>
<path d="M18.0026 18.333H12.6693C12.4849 18.333 12.3359 18.4823 12.3359 18.6663V19.9996C12.3359 20.1836 12.4849 20.333 12.6693 20.333C12.8536 20.333 13.0026 20.1836 13.0026 19.9996V18.9996H17.6693V19.9996C17.6693 20.1836 17.8182 20.333 18.0026 20.333C18.1869 20.333 18.3359 20.1836 18.3359 19.9996V18.6663C18.3359 18.4823 18.187 18.333 18.0026 18.333Z" fill="#0095DB"/>
<path d="M10.3346 1.6665C7.76133 1.6665 5.66797 3.75982 5.66797 6.33318C5.66797 8.90654 7.76133 10.9999 10.3346 10.9999C12.908 10.9999 15.0013 8.9065 15.0013 6.33318C15.0013 3.75986 12.908 1.6665 10.3346 1.6665ZM10.3346 10.3332C8.12898 10.3332 6.33465 8.53885 6.33465 6.33318C6.33465 4.12752 8.12898 2.33318 10.3346 2.33318C12.5403 2.33318 14.3346 4.12752 14.3346 6.33318C14.3346 8.53885 12.5403 10.3332 10.3346 10.3332Z" fill="#1E1E1E"/>
<path d="M19.0027 6.33301C18.2674 6.33301 17.6694 6.93102 17.6694 7.66633V10.3053C17.6694 10.4893 17.8184 10.6386 18.0027 10.6386C18.1871 10.6386 18.336 10.4893 18.336 10.3053V7.66633C18.336 7.29867 18.635 6.99965 19.0027 6.99965C19.3704 6.99965 19.6694 7.29863 19.6694 7.66633V12.6663C19.6694 13.5896 19.1417 14.0603 19.1004 14.0973L16.4337 16.764C16.3033 16.8944 16.3033 17.105 16.4337 17.2354C16.4987 17.3004 16.5841 17.333 16.6694 17.333C16.7547 17.333 16.84 17.3004 16.905 17.2354L19.551 14.5877C19.583 14.5607 20.336 13.911 20.336 12.6664V7.66637C20.336 6.93102 19.738 6.33301 19.0027 6.33301Z" fill="#1E1E1E"/>
<path d="M16.3359 6.33301C16.3359 3.02469 13.6443 0.333008 10.3359 0.333008C7.02762 0.333008 4.33594 3.02469 4.33594 6.33301C4.33594 9.64133 7.02762 12.333 10.3359 12.333C13.6443 12.333 16.3359 9.64133 16.3359 6.33301ZM10.3359 11.6663C7.39527 11.6663 5.00262 9.27367 5.00262 6.33301C5.00262 3.39234 7.39527 0.999687 10.3359 0.999687C13.2766 0.999687 15.6693 3.39234 15.6693 6.33301C15.6693 9.27367 13.2766 11.6663 10.3359 11.6663Z" fill="#0095DB"/>
<path d="M10.4193 6.54529H8.33203V6.02446H10.4193C10.6465 6.02446 10.8344 5.985 10.9827 5.90609C11.1311 5.82559 11.2416 5.71669 11.3142 5.57938C11.3868 5.44049 11.4231 5.28267 11.4231 5.1059C11.4231 4.92913 11.3868 4.77209 11.3142 4.63478C11.2416 4.49589 11.1311 4.38699 10.9827 4.30808C10.8344 4.22758 10.6465 4.18734 10.4193 4.18734H9.6862V8.51499H9.09908V3.6665H10.4193C10.7791 3.6665 11.0758 3.732 11.3094 3.863C11.543 3.994 11.7166 4.1684 11.8303 4.3862C11.9439 4.604 12.0007 4.8439 12.0007 5.1059C12.0007 5.36789 11.9439 5.60779 11.8303 5.82559C11.7166 6.0434 11.543 6.2178 11.3094 6.3488C11.0758 6.47979 10.7791 6.54529 10.4193 6.54529ZM10.7563 6.99984V7.52067H8.33203V6.99984H10.7563Z" fill="#0095DB"/>
</g>
<defs>
<clipPath id="clip0_1_1568">
<rect width="20" height="20" fill="white" transform="translate(0.332031 0.333496)"/>
</clipPath>
</defs>
</svg>
