<svg width="30" height="30" viewBox="0 0 30 30" fill="none" xmlns="http://www.w3.org/2000/svg">
<g clip-path="url(#clip0_1_618)">
<path d="M5.44922 29.3504V26.9629" stroke="#0095DB" stroke-width="2.25" stroke-miterlimit="10" stroke-linecap="round"/>
<path d="M23.4258 29.3504C23.4258 29.9717 23.9295 30.4754 24.5508 30.4754C25.1721 30.4754 25.6758 29.9717 25.6758 29.3504H23.4258ZM25.6758 29.3504V26.9629H23.4258V29.3504H25.6758Z" fill="#0095DB"/>
<path d="M22.1504 18.6123H7.83789V26.9623H22.1504V18.6123Z" stroke="#1E1E1E" stroke-width="2.25" stroke-miterlimit="10"/>
<path d="M24.5496 13.8375H25.7996C26.4263 13.8539 27.0213 14.1161 27.4564 14.5675C27.8914 15.0188 28.1314 15.6232 28.1246 16.25V24.6C28.1246 25.2332 27.8731 25.8405 27.4253 26.2882C26.9776 26.736 26.3703 26.9875 25.7371 26.9875H22.1621V16.25C22.1621 15.6168 22.4137 15.0096 22.8614 14.5618C23.3091 14.1141 23.9164 13.8625 24.5496 13.8625V13.8375Z" stroke="#1E1E1E" stroke-width="2.25" stroke-miterlimit="10"/>
<path d="M4.26263 13.8375H5.51263C6.13929 13.8539 6.73437 14.1161 7.16938 14.5675C7.60438 15.0188 7.84441 15.6232 7.83763 16.25V26.9875H4.26263C3.94699 26.9875 3.63447 26.925 3.34316 26.8034C3.05186 26.6819 2.78754 26.5038 2.56551 26.2794C2.34348 26.0551 2.16815 25.7889 2.04964 25.4964C1.93114 25.2038 1.87183 24.8907 1.87513 24.575V16.25C1.87183 15.9344 1.93114 15.6212 2.04964 15.3287C2.16815 15.0361 2.34348 14.77 2.56551 14.5456C2.78754 14.3213 3.05186 14.1432 3.34316 14.0216C3.63447 13.9001 3.94699 13.8375 4.26263 13.8375Z" stroke="#1E1E1E" stroke-width="2.25" stroke-miterlimit="10"/>
<path d="M5.44922 13.8375V5.48752C5.44922 4.53606 5.82719 3.62357 6.49997 2.95078C7.17276 2.27799 8.08525 1.90002 9.03672 1.90002H20.9617C21.9132 1.90002 22.8257 2.27799 23.4985 2.95078C24.1713 3.62357 24.5492 4.53606 24.5492 5.48752V13.8375" stroke="#1E1E1E" stroke-width="2.25" stroke-miterlimit="10"/>
<path d="M10.2246 6.67529H12.6121" stroke="#0095DB" stroke-width="2.25" stroke-miterlimit="10"/>
<path d="M17.3867 6.67529H19.7742" stroke="#0095DB" stroke-width="2.25" stroke-miterlimit="10"/>
<path d="M10.2246 11.45H12.6121" stroke="#0095DB" stroke-width="2.25" stroke-miterlimit="10"/>
<path d="M17.3867 11.45H19.7742" stroke="#0095DB" stroke-width="2.25" stroke-miterlimit="10"/>
</g>
<defs>
<clipPath id="clip0_1_618">
<rect width="30" height="30" fill="white"/>
</clipPath>
</defs>
</svg>
