<svg width="21" height="21" viewBox="0 0 21 21" fill="none" xmlns="http://www.w3.org/2000/svg">
<g clip-path="url(#clip0_1_1538)">
<path d="M3.96484 19.9003V18.3086" stroke="#0095DB" stroke-width="1.5" stroke-miterlimit="10" stroke-linecap="round"/>
<path d="M15.9492 19.9003C15.9492 20.3145 16.285 20.6503 16.6992 20.6503C17.1134 20.6503 17.4492 20.3145 17.4492 19.9003H15.9492ZM17.4492 19.9003V18.3086H15.9492V19.9003H17.4492Z" fill="#0095DB"/>
<path d="M15.1003 12.7417H5.55859V18.3084H15.1003V12.7417Z" stroke="#1E1E1E" stroke-width="1.5" stroke-miterlimit="10"/>
<path d="M16.701 9.55823H17.5344C17.9521 9.56914 18.3489 9.74393 18.6389 10.0448C18.9289 10.3458 19.0889 10.7487 19.0844 11.1666V16.7332C19.0844 17.1554 18.9167 17.5602 18.6182 17.8587C18.3197 18.1572 17.9148 18.3249 17.4927 18.3249H15.1094V11.1666C15.1094 10.7444 15.2771 10.3396 15.5756 10.0411C15.8741 9.74259 16.2789 9.57489 16.701 9.57489V9.55823Z" stroke="#1E1E1E" stroke-width="1.5" stroke-miterlimit="10"/>
<path d="M3.17379 9.55811H4.00712C4.42489 9.56902 4.82161 9.74381 5.11162 10.0447C5.40162 10.3456 5.56164 10.7485 5.55712 11.1664V18.3248H3.17379C2.96335 18.3248 2.75501 18.2831 2.56081 18.202C2.3666 18.121 2.19039 18.0023 2.04237 17.8527C1.89435 17.7031 1.77746 17.5257 1.69846 17.3307C1.61946 17.1356 1.57992 16.9269 1.58212 16.7164V11.1664C1.57992 10.956 1.61946 10.7473 1.69846 10.5522C1.77746 10.3572 1.89435 10.1797 2.04237 10.0302C2.19039 9.8806 2.3666 9.76187 2.56081 9.68084C2.75501 9.59981 2.96335 9.55809 3.17379 9.55811Z" stroke="#1E1E1E" stroke-width="1.5" stroke-miterlimit="10"/>
<path d="M3.96484 9.55843V3.99176C3.96484 3.35745 4.21682 2.74913 4.66535 2.3006C5.11387 1.85208 5.7222 1.6001 6.35651 1.6001H14.3065C14.9408 1.6001 15.5491 1.85208 15.9977 2.3006C16.4462 2.74913 16.6982 3.35745 16.6982 3.99176V9.55843" stroke="#1E1E1E" stroke-width="1.5" stroke-miterlimit="10"/>
<path d="M7.15234 4.78369H8.74401" stroke="#0095DB" stroke-width="1.5" stroke-miterlimit="10"/>
<path d="M11.9258 4.78369H13.5174" stroke="#0095DB" stroke-width="1.5" stroke-miterlimit="10"/>
<path d="M7.15234 7.9668H8.74401" stroke="#0095DB" stroke-width="1.5" stroke-miterlimit="10"/>
<path d="M11.9258 7.9668H13.5174" stroke="#0095DB" stroke-width="1.5" stroke-miterlimit="10"/>
</g>
<defs>
<clipPath id="clip0_1_1538">
<rect width="20" height="20" fill="white" transform="translate(0.332031 0.333496)"/>
</clipPath>
</defs>
</svg>
