<svg width="30" height="30" viewBox="0 0 30 30" fill="none" xmlns="http://www.w3.org/2000/svg">
<g clip-path="url(#clip0_1_650)">
<path d="M20.1725 20.1224C20.1245 20.1639 19 21.16 19 22.9999V25.4999C19 25.7759 19.2235 25.9999 19.5 25.9999C19.7765 25.9999 20 25.7759 20 25.4999V22.9999C20 21.6329 20.7965 20.9059 20.8534 20.8534L24.3534 17.3534C24.5519 17.1549 24.7994 17.0399 25.0504 17.0299C25.3054 17.0189 25.5244 17.1109 25.7069 17.2929C25.8889 17.4754 25.9804 17.7024 25.9699 17.9494C25.9599 18.2004 25.8449 18.4479 25.6464 18.6464L23.1466 21.1464C22.951 21.342 22.951 21.658 23.1466 21.8534C23.342 22.049 23.6581 22.049 23.8536 21.8534L26.3536 19.3539C26.7301 18.9774 26.9486 18.493 26.9696 17.9899C26.9911 17.4644 26.7941 16.9654 26.414 16.5859C26.0341 16.2064 25.5415 16.0109 25.0096 16.0304C24.5071 16.0514 24.0225 16.2698 23.6465 16.6464L20.1725 20.1224Z" fill="#1E1E1E"/>
<path d="M5.50002 25.5001C5.62805 25.5001 5.75602 25.4511 5.85352 25.3536C6.04904 25.1581 6.04904 24.8421 5.85352 24.6466L1.82502 20.6206C1.7915 20.5911 1.00002 19.8851 1.00002 18.5001V11.0001C1.00002 10.4486 1.4485 10.0001 2.00004 10.0001C2.55152 10.0001 3.00006 10.4486 3.00006 11.0001V14.9586C3.00006 15.2346 3.22354 15.4586 3.50004 15.4586C3.77654 15.4586 4.00002 15.2346 4.00002 14.9586V11.0001C4.00002 9.89707 3.10301 9.00012 2.00004 9.00012C0.897012 9.00006 0 9.89708 0 11V18.5C0 20.367 1.12951 21.3415 1.1465 21.3536L5.14652 25.3536C5.24402 25.4511 5.37199 25.5001 5.50002 25.5001Z" fill="#1E1E1E"/>
<path d="M3.03089 17.99C3.05186 18.493 3.27036 18.9775 3.64688 19.3535L6.1469 21.8535C6.34243 22.049 6.65843 22.049 6.8539 21.8535C7.04937 21.658 7.04937 21.342 6.8539 21.1465L4.35388 18.646C4.15536 18.448 4.0404 18.2005 4.03038 17.9495C4.01989 17.7025 4.11136 17.4755 4.29341 17.293C4.47593 17.111 4.69642 17.019 4.94989 17.0301C5.20091 17.0401 5.44841 17.155 5.64686 17.3536L9.17034 20.8756C9.20386 20.9061 10.0003 21.6331 10.0003 23.0001V25.5C10.0003 25.776 10.2238 26 10.5003 26C10.7768 26 11.0003 25.776 11.0003 25.5V23C11.0003 21.16 9.87581 20.164 9.85378 20.1465L6.35386 16.6465C5.97786 16.27 5.49335 16.0515 4.99085 16.0305C4.45683 16.012 3.96587 16.2065 3.58636 16.586C3.20638 16.9655 3.00938 17.4645 3.03089 17.99Z" fill="#1E1E1E"/>
<path d="M11.5 27H3.49998C3.22348 27 3 27.224 3 27.5V29.5C3 29.7759 3.22348 29.9999 3.49998 29.9999C3.77648 29.9999 3.99996 29.7759 3.99996 29.5V28H11V29.5C11 29.7759 11.2235 29.9999 11.5 29.9999C11.7765 29.9999 11.9999 29.7759 11.9999 29.5V27.5C12 27.224 11.7765 27 11.5 27Z" fill="#0095DB"/>
<path d="M26.5 27H18.5C18.2235 27 18 27.224 18 27.5V29.5C18 29.7759 18.2235 29.9999 18.5 29.9999C18.7765 29.9999 19 29.7759 19 29.5V28H26V29.5C26 29.7759 26.2235 29.9999 26.5 29.9999C26.7765 29.9999 26.9999 29.7759 26.9999 29.5V27.5C27 27.224 26.7765 27 26.5 27Z" fill="#0095DB"/>
<path d="M15 2C11.14 2 8 5.13998 8 9.00002C8 12.8601 11.14 16 15 16C18.86 16 22 12.86 22 9.00002C22 5.14004 18.86 2 15 2ZM15 15C11.6915 15 9.00002 12.3085 9.00002 9.00002C9.00002 5.69152 11.6915 3.00002 15 3.00002C18.3085 3.00002 21 5.69152 21 9.00002C21 12.3085 18.3085 15 15 15Z" fill="#1E1E1E"/>
<path d="M28.0002 9C26.8972 9 26.0002 9.89701 26.0002 11V14.9585C26.0002 15.2344 26.2237 15.4584 26.5002 15.4584C26.7767 15.4584 27.0002 15.2344 27.0002 14.9585V11C27.0002 10.4485 27.4486 9.99996 28.0002 9.99996C28.5517 9.99996 29.0002 10.4484 29.0002 11V18.5C29.0002 19.885 28.2087 20.591 28.1467 20.6465L24.1466 24.6465C23.9511 24.8421 23.9511 25.158 24.1466 25.3535C24.2441 25.451 24.3722 25.5 24.5001 25.5C24.6282 25.5 24.7561 25.451 24.8536 25.3535L28.8227 21.382C28.8706 21.3415 30.0002 20.367 30.0002 18.5V11C30.0002 9.89701 29.1031 9 28.0002 9Z" fill="#1E1E1E"/>
<path d="M24 9C24 4.03752 19.9625 0 15 0C10.0375 0 6 4.03752 6 9C6 13.9625 10.0375 18 15 18C19.9625 18 24 13.9625 24 9ZM15 17C10.589 17 7.00002 13.411 7.00002 9C7.00002 4.589 10.589 1.00002 15 1.00002C19.411 1.00002 23 4.589 23 9C23 13.411 19.411 17 15 17Z" fill="#0095DB"/>
<path d="M15.1309 9.31818H12V8.53693H15.1309C15.4718 8.53693 15.7535 8.47775 15.976 8.35938C16.1986 8.23864 16.3643 8.07528 16.4732 7.86932C16.5821 7.66098 16.6365 7.42424 16.6365 7.15909C16.6365 6.89394 16.5821 6.65838 16.4732 6.45241C16.3643 6.24408 16.1986 6.08073 15.976 5.96236C15.7535 5.84162 15.4718 5.78125 15.1309 5.78125H14.0312V12.2727H13.1506V5H15.1309C15.6706 5 16.1157 5.09825 16.4661 5.29474C16.8165 5.49124 17.0769 5.75284 17.2473 6.07955C17.4178 6.40625 17.503 6.7661 17.503 7.15909C17.503 7.55208 17.4178 7.91193 17.2473 8.23864C17.0769 8.56534 16.8165 8.82694 16.4661 9.02344C16.1157 9.21993 15.6706 9.31818 15.1309 9.31818ZM15.6364 10V10.7812H12V10H15.6364Z" fill="#0095DB"/>
</g>
<defs>
<clipPath id="clip0_1_650">
<rect width="30" height="30" fill="white"/>
</clipPath>
</defs>
</svg>
